<svg width="1920" height="1080" viewBox="0 0 1920 1080" fill="none" xmlns="http://www.w3.org/2000/svg">
<path d="M964.306 587.247C895.632 587.247 839.764 531.378 839.764 462.706C839.764 394.033 895.632 338.164 964.306 338.164C1032.98 338.164 1088.85 394.033 1088.85 462.706C1088.85 531.378 1032.98 587.247 964.306 587.247ZM964.306 339.179C896.193 339.179 840.778 394.593 840.778 462.706C840.778 530.82 896.193 586.234 964.306 586.234C1032.42 586.234 1087.83 530.82 1087.83 462.706C1087.83 394.593 1032.42 339.179 964.306 339.179Z" fill="#9F1010"/>
<path d="M964.305 622.202C876.359 622.202 804.81 550.652 804.81 462.706C804.81 374.76 876.359 303.21 964.305 303.21C1052.25 303.21 1123.8 374.76 1123.8 462.706C1123.8 550.652 1052.25 622.202 964.305 622.202ZM964.305 304.224C876.918 304.224 805.824 375.318 805.824 462.706C805.824 550.094 876.918 621.188 964.305 621.188C1051.69 621.188 1122.79 550.094 1122.79 462.706C1122.79 375.318 1051.69 304.224 964.305 304.224Z" fill="#9F1010"/>
<path d="M889.208 576.069C888.908 575.87 888.605 575.677 888.306 575.475L881.018 586.383C881.316 586.584 881.62 586.777 881.92 586.976L889.208 576.069Z" fill="#9F1010"/>
<path d="M1087.47 520.373C1087.32 520.699 1087.17 521.027 1087.01 521.351L1098.88 526.959C1099.03 526.635 1099.18 526.307 1099.33 525.98L1087.47 520.373Z" fill="#9F1010"/>
<path d="M1084.37 526.578C1084.2 526.896 1084.03 527.217 1083.86 527.533L1095.42 533.741C1095.59 533.425 1095.75 533.103 1095.92 532.786L1084.37 526.578Z" fill="#9F1010"/>
<path d="M1090.16 514.252C1090.02 514.585 1089.89 514.92 1089.75 515.251L1101.87 520.273C1102.01 519.94 1102.14 519.606 1102.28 519.273L1090.16 514.252Z" fill="#9F1010"/>
<path d="M1069.58 548.761C1069.35 549.04 1069.12 549.318 1068.89 549.595L1079.02 557.937C1079.25 557.66 1079.48 557.382 1079.71 557.104L1069.58 548.761Z" fill="#9F1010"/>
<path d="M1081.07 532.402C1080.89 532.71 1080.71 533.023 1080.52 533.33L1091.76 540.096C1091.95 539.789 1092.13 539.476 1092.31 539.167L1081.07 532.402Z" fill="#9F1010"/>
<path d="M1077.67 537.804C1077.47 538.104 1077.28 538.407 1077.07 538.706L1087.98 545.994C1088.18 545.696 1088.38 545.392 1088.58 545.092L1077.67 537.804Z" fill="#9F1010"/>
<path d="M894.585 579.462C894.276 579.277 893.964 579.096 893.657 578.909L886.892 590.15C887.199 590.337 887.511 590.517 887.82 590.702L894.585 579.462Z" fill="#9F1010"/>
<path d="M1100.14 468.824C1100.12 469.183 1100.11 469.543 1100.09 469.902L1113.19 470.544C1113.21 470.185 1113.22 469.825 1113.24 469.466L1100.14 468.824Z" fill="#9F1010"/>
<path d="M1098.86 482.383C1098.81 482.738 1098.76 483.096 1098.71 483.451L1111.68 485.4C1111.74 485.045 1111.78 484.687 1111.83 484.331L1098.86 482.383Z" fill="#9F1010"/>
<path d="M1099.65 475.765C1099.62 476.123 1099.59 476.481 1099.55 476.839L1112.61 478.15C1112.64 477.793 1112.67 477.434 1112.71 477.076L1099.65 475.765Z" fill="#9F1010"/>
<path d="M1065.21 553.841C1064.97 554.109 1064.73 554.373 1064.48 554.638L1074.19 563.465C1074.43 563.199 1074.68 562.935 1074.92 562.668L1065.21 553.841Z" fill="#9F1010"/>
<path d="M1097.79 488.707C1097.72 489.06 1097.65 489.415 1097.58 489.767L1110.45 492.327C1110.52 491.975 1110.59 491.62 1110.65 491.267L1097.79 488.707Z" fill="#9F1010"/>
<path d="M1094.53 501.927C1094.43 502.272 1094.33 502.62 1094.22 502.963L1106.77 506.797C1106.88 506.453 1106.97 506.106 1107.08 505.76L1094.53 501.927Z" fill="#9F1010"/>
<path d="M1092.45 508.274C1092.33 508.614 1092.21 508.955 1092.09 509.293L1104.43 513.736C1104.56 513.398 1104.67 513.056 1104.79 512.717L1092.45 508.274Z" fill="#9F1010"/>
<path d="M1096.36 495.224C1096.27 495.574 1096.19 495.925 1096.1 496.274L1108.83 499.46C1108.92 499.111 1109 498.76 1109.08 498.41L1096.36 495.224Z" fill="#9F1010"/>
<path d="M1050.77 567.651C1050.49 567.879 1050.21 568.101 1049.93 568.328L1058.23 578.484C1058.51 578.257 1058.79 578.035 1059.07 577.807L1050.77 567.651Z" fill="#9F1010"/>
<path d="M977.893 598.006C977.536 598.042 977.175 598.069 976.817 598.102L978.077 611.159C978.436 611.126 978.796 611.099 979.153 611.064L977.893 598.006Z" fill="#9F1010"/>
<path d="M964.845 611.792V598.674C964.663 598.674 964.483 598.681 964.3 598.681C964.121 598.681 963.944 598.675 963.765 598.674V611.793C963.944 611.793 964.121 611.799 964.3 611.799C964.482 611.799 964.663 611.793 964.845 611.792Z" fill="#9F1010"/>
<path d="M918.692 590.831C918.352 590.711 918.01 590.596 917.673 590.473L913.23 602.818C913.568 602.941 913.91 603.056 914.249 603.177L918.692 590.831Z" fill="#9F1010"/>
<path d="M912.759 588.561C912.426 588.424 912.091 588.291 911.759 588.152L906.739 600.273C907.07 600.413 907.405 600.545 907.738 600.682L912.759 588.561Z" fill="#9F1010"/>
<path d="M971.189 598.508C970.83 598.526 970.469 598.534 970.11 598.549L970.73 611.652C971.089 611.637 971.45 611.629 971.808 611.611L971.189 598.508Z" fill="#9F1010"/>
<path d="M906.61 585.859C906.284 585.706 905.956 585.557 905.631 585.402L900.022 597.263C900.347 597.418 900.675 597.566 901.001 597.72L906.61 585.859Z" fill="#9F1010"/>
<path d="M958.125 598.535C957.766 598.519 957.406 598.507 957.047 598.488L956.405 611.591C956.764 611.61 957.124 611.621 957.483 611.638L958.125 598.535Z" fill="#9F1010"/>
<path d="M900.43 582.765C900.113 582.596 899.792 582.433 899.476 582.261L893.268 593.82C893.584 593.991 893.905 594.154 894.223 594.323L900.43 582.765Z" fill="#9F1010"/>
<path d="M925.076 592.927C924.732 592.823 924.384 592.725 924.04 592.619L920.207 605.167C920.55 605.273 920.897 605.371 921.243 605.475L925.076 592.927Z" fill="#9F1010"/>
<path d="M938.305 596.188C937.952 596.12 937.598 596.056 937.245 595.985L934.686 608.853C935.038 608.923 935.393 608.987 935.746 609.055L938.305 596.188Z" fill="#9F1010"/>
<path d="M951.236 598.053C950.878 598.019 950.519 597.989 950.162 597.952L948.85 611.006C949.207 611.043 949.566 611.072 949.924 611.107L951.236 598.053Z" fill="#9F1010"/>
<path d="M931.74 594.746C931.39 594.66 931.039 594.579 930.69 594.49L927.504 607.218C927.852 607.307 928.204 607.388 928.554 607.474L931.74 594.746Z" fill="#9F1010"/>
<path d="M944.563 597.25C944.207 597.198 943.849 597.152 943.494 597.098L941.545 610.073C941.9 610.127 942.258 610.172 942.613 610.223L944.563 597.25Z" fill="#9F1010"/>
<path d="M1022.65 585.553C1022.33 585.708 1022 585.858 1021.67 586.01L1027.26 597.881C1027.59 597.729 1027.91 597.578 1028.24 597.424L1022.65 585.553Z" fill="#9F1010"/>
<path d="M1034.65 579.091C1034.34 579.278 1034.03 579.456 1033.72 579.64L1040.47 590.892C1040.77 590.708 1041.09 590.529 1041.39 590.343L1034.65 579.091Z" fill="#9F1010"/>
<path d="M1028.64 582.519C1028.33 582.69 1028.01 582.855 1027.69 583.023L1033.85 594.606C1034.17 594.437 1034.49 594.272 1034.8 594.102L1028.64 582.519Z" fill="#9F1010"/>
<path d="M1040.3 575.474C1040.01 575.676 1039.7 575.869 1039.4 576.068L1046.69 586.976C1046.99 586.777 1047.29 586.584 1047.59 586.382L1040.3 575.474Z" fill="#9F1010"/>
<path d="M1045.49 571.79C1045.2 572.005 1044.91 572.213 1044.62 572.426L1052.41 582.977C1052.7 582.763 1053 582.555 1053.29 582.34L1045.49 571.79Z" fill="#9F1010"/>
<path d="M1055.99 563.111C1055.73 563.354 1055.46 563.594 1055.19 563.834L1064 573.552C1064.27 573.311 1064.54 573.072 1064.8 572.829L1055.99 563.111Z" fill="#9F1010"/>
<path d="M1004.03 592.776C1003.69 592.881 1003.34 592.982 1003 593.084L1006.78 605.647C1007.13 605.545 1007.47 605.444 1007.82 605.339L1004.03 592.776Z" fill="#9F1010"/>
<path d="M997.558 594.577C997.209 594.664 996.859 594.748 996.509 594.833L999.674 607.566C1000.02 607.481 1000.37 607.397 1000.72 607.31L997.558 594.577Z" fill="#9F1010"/>
<path d="M991.366 595.983C991.013 596.054 990.659 596.118 990.306 596.186L992.865 609.054C993.218 608.985 993.573 608.922 993.925 608.85L991.366 595.983Z" fill="#9F1010"/>
<path d="M1010.59 590.593C1010.25 590.716 1009.91 590.832 1009.57 590.952L1013.99 603.305C1014.33 603.185 1014.67 603.069 1015.01 602.946L1010.59 590.593Z" fill="#9F1010"/>
<path d="M984.746 597.151C984.391 597.204 984.033 597.25 983.677 597.3L985.604 610.277C985.959 610.226 986.317 610.181 986.672 610.128L984.746 597.151Z" fill="#9F1010"/>
<path d="M1016.85 588.15C1016.52 588.289 1016.18 588.422 1015.85 588.559L1020.87 600.68C1021.2 600.543 1021.54 600.411 1021.87 600.271L1016.85 588.15Z" fill="#9F1010"/>
<path d="M1073.83 543.289C1073.62 543.578 1073.41 543.872 1073.19 544.159L1083.73 551.973C1083.95 551.685 1084.15 551.391 1084.37 551.102L1073.83 543.289Z" fill="#9F1010"/>
<path d="M1021.89 339.504C1022.22 339.657 1022.54 339.806 1022.87 339.961L1028.48 328.1C1028.15 327.945 1027.82 327.796 1027.5 327.643L1021.89 339.504Z" fill="#9F1010"/>
<path d="M1028.16 342.64C1028.48 342.809 1028.8 342.972 1029.12 343.143L1035.32 331.585C1035.01 331.413 1034.69 331.251 1034.37 331.081L1028.16 342.64Z" fill="#9F1010"/>
<path d="M1009.78 334.533C1010.12 334.653 1010.46 334.769 1010.8 334.892L1015.24 322.546C1014.9 322.423 1014.56 322.308 1014.22 322.187L1009.78 334.533Z" fill="#9F1010"/>
<path d="M1033.91 345.883C1034.22 346.068 1034.53 346.246 1034.84 346.433L1041.6 335.193C1041.29 335.006 1040.98 334.828 1040.67 334.643L1033.91 345.883Z" fill="#9F1010"/>
<path d="M1015.85 336.854C1016.18 336.99 1016.52 337.123 1016.85 337.262L1021.87 325.141C1021.54 325.002 1021.21 324.869 1020.87 324.732L1015.85 336.854Z" fill="#9F1010"/>
<path d="M1050.35 357.42C1050.63 357.648 1050.9 357.876 1051.18 358.107L1059.52 347.982C1059.25 347.753 1058.97 347.524 1058.69 347.295L1050.35 357.42Z" fill="#9F1010"/>
<path d="M1055.36 361.725C1055.62 361.966 1055.89 362.209 1056.16 362.453L1064.98 352.749C1064.72 352.506 1064.45 352.263 1064.18 352.022L1055.36 361.725Z" fill="#9F1010"/>
<path d="M1003.51 332.48C1003.86 332.584 1004.2 332.682 1004.55 332.788L1008.38 320.24C1008.04 320.134 1007.69 320.036 1007.34 319.932L1003.51 332.48Z" fill="#9F1010"/>
<path d="M1044.81 353.128C1045.1 353.341 1045.4 353.549 1045.68 353.764L1053.5 343.226C1053.21 343.011 1052.91 342.803 1052.62 342.59L1044.81 353.128Z" fill="#9F1010"/>
<path d="M1039.4 349.344C1039.7 349.543 1040.01 349.737 1040.3 349.938L1047.59 339.03C1047.29 338.829 1046.99 338.636 1046.69 338.437L1039.4 349.344Z" fill="#9F1010"/>
<path d="M970.354 326.872C970.713 326.888 971.073 326.898 971.432 326.917L972.073 313.814C971.715 313.795 971.354 313.786 970.995 313.77L970.354 326.872Z" fill="#9F1010"/>
<path d="M957.265 326.911C957.623 326.892 957.984 326.884 958.343 326.869L957.723 313.766C957.365 313.781 957.003 313.788 956.645 313.807L957.265 326.911Z" fill="#9F1010"/>
<path d="M950.693 327.407C951.05 327.371 951.41 327.344 951.769 327.311L950.509 314.253C950.15 314.286 949.79 314.313 949.433 314.349L950.693 327.407Z" fill="#9F1010"/>
<path d="M937.244 329.427C937.597 329.356 937.952 329.293 938.305 329.224L935.745 316.357C935.392 316.425 935.037 316.489 934.685 316.559L937.244 329.427Z" fill="#9F1010"/>
<path d="M943.734 328.279C944.089 328.225 944.447 328.18 944.803 328.129L942.876 315.152C942.521 315.203 942.162 315.248 941.808 315.302L943.734 328.279Z" fill="#9F1010"/>
<path d="M963.765 313.62V326.738C963.944 326.737 964.121 326.731 964.3 326.731C964.483 326.731 964.663 326.737 964.845 326.738V313.62C964.663 313.619 964.483 313.613 964.3 313.613C964.121 313.613 963.944 313.619 963.765 313.62Z" fill="#9F1010"/>
<path d="M990.306 329.226C990.659 329.295 991.013 329.358 991.366 329.429L993.925 316.561C993.573 316.491 993.218 316.427 992.865 316.358L990.306 329.226Z" fill="#9F1010"/>
<path d="M996.744 330.636C997.094 330.722 997.445 330.804 997.794 330.892L1000.98 318.165C1000.63 318.077 1000.28 317.994 999.93 317.909L996.744 330.636Z" fill="#9F1010"/>
<path d="M983.893 328.142C984.249 328.193 984.607 328.237 984.962 328.291L986.91 315.318C986.555 315.264 986.197 315.22 985.842 315.168L983.893 328.142Z" fill="#9F1010"/>
<path d="M977.351 327.358C977.709 327.392 978.068 327.422 978.425 327.459L979.737 314.405C979.379 314.368 979.021 314.339 978.662 314.304L977.351 327.358Z" fill="#9F1010"/>
<path d="M1064.65 370.948C1064.89 371.214 1065.13 371.481 1065.37 371.749L1075.09 362.938C1074.85 362.671 1074.61 362.403 1074.36 362.138L1064.65 370.948Z" fill="#9F1010"/>
<path d="M1097.58 435.645C1097.65 435.998 1097.72 436.353 1097.79 436.705L1110.65 434.146C1110.58 433.793 1110.52 433.438 1110.45 433.085L1097.58 435.645Z" fill="#9F1010"/>
<path d="M1113.21 455.12L1100.1 455.74C1100.12 456.098 1100.13 456.459 1100.14 456.818L1113.25 456.198C1113.23 455.839 1113.22 455.478 1113.21 455.12Z" fill="#9F1010"/>
<path d="M867.78 366.944C868.033 366.689 868.288 366.433 868.544 366.18L859.268 356.905C859.013 357.159 858.759 357.413 858.505 357.668L867.78 366.944Z" fill="#9F1010"/>
<path d="M1060.83 366.945L1070.11 357.67C1069.85 357.415 1069.6 357.16 1069.34 356.906L1060.07 366.181C1060.32 366.435 1060.58 366.689 1060.83 366.945Z" fill="#9F1010"/>
<path d="M1098.74 442.19C1098.79 442.545 1098.84 442.903 1098.89 443.259L1111.87 441.332C1111.82 440.977 1111.77 440.619 1111.72 440.264L1098.74 442.19Z" fill="#9F1010"/>
<path d="M1099.6 449.105C1099.64 449.462 1099.67 449.823 1099.7 450.181L1112.76 448.921C1112.72 448.562 1112.7 448.202 1112.66 447.844L1099.6 449.105Z" fill="#9F1010"/>
<path d="M1100.28 462.711C1100.28 462.89 1100.27 463.067 1100.27 463.247H1113.39C1113.39 463.068 1113.4 462.891 1113.4 462.711C1113.4 462.529 1113.39 462.349 1113.39 462.167H1100.27C1100.27 462.349 1100.28 462.529 1100.28 462.711Z" fill="#9F1010"/>
<path d="M828.331 462.711C828.331 462.529 828.337 462.349 828.338 462.167H815.22C815.219 462.349 815.213 462.529 815.213 462.711C815.213 462.89 815.219 463.067 815.219 463.247H828.337C828.337 463.067 828.331 462.89 828.331 462.711Z" fill="#9F1010"/>
<path d="M930.903 330.87C931.252 330.782 931.603 330.699 931.953 330.614L928.788 317.881C928.438 317.967 928.087 318.05 927.739 318.138L930.903 330.87Z" fill="#9F1010"/>
<path d="M1069.24 376.227C1069.47 376.505 1069.69 376.789 1069.92 377.068L1080.07 368.766C1079.84 368.487 1079.62 368.203 1079.39 367.925L1069.24 376.227Z" fill="#9F1010"/>
<path d="M867.779 558.469L858.503 567.744C858.757 567.999 859.012 568.254 859.267 568.508L868.542 559.232C868.286 558.978 868.032 558.724 867.779 558.469Z" fill="#9F1010"/>
<path d="M1060.83 558.468C1060.58 558.724 1060.32 558.978 1060.07 559.232L1069.34 568.507C1069.6 568.253 1069.85 567.999 1070.11 567.743L1060.83 558.468Z" fill="#9F1010"/>
<path d="M1080.64 392.285C1080.83 392.592 1081.01 392.904 1081.19 393.214L1092.44 386.468C1092.26 386.159 1092.08 385.846 1091.9 385.538L1080.64 392.285Z" fill="#9F1010"/>
<path d="M1077.07 386.708C1077.28 387.006 1077.47 387.31 1077.67 387.61L1088.58 380.322C1088.38 380.022 1088.18 379.718 1087.98 379.419L1077.07 386.708Z" fill="#9F1010"/>
<path d="M1084.11 398.354C1084.28 398.671 1084.45 398.991 1084.61 399.309L1096.2 393.147C1096.03 392.829 1095.86 392.509 1095.69 392.192L1084.11 398.354Z" fill="#9F1010"/>
<path d="M1073.32 381.431C1073.54 381.719 1073.75 382.013 1073.96 382.304L1084.51 374.509C1084.3 374.219 1084.09 373.925 1083.87 373.636L1073.32 381.431Z" fill="#9F1010"/>
<path d="M1096.15 429.36C1096.24 429.709 1096.32 430.059 1096.41 430.409L1109.14 427.245C1109.06 426.895 1108.97 426.544 1108.89 426.195L1096.15 429.36Z" fill="#9F1010"/>
<path d="M1094.37 422.963C1094.48 423.307 1094.58 423.652 1094.68 423.998L1107.24 420.214C1107.14 419.869 1107.04 419.523 1106.93 419.179L1094.37 422.963Z" fill="#9F1010"/>
<path d="M1092.16 416.34C1092.29 416.678 1092.4 417.019 1092.52 417.358L1104.88 412.937C1104.76 412.597 1104.64 412.256 1104.52 411.918L1092.16 416.34Z" fill="#9F1010"/>
<path d="M1087.11 404.266C1087.26 404.59 1087.41 404.918 1087.56 405.243L1099.43 399.656C1099.28 399.33 1099.13 399.002 1098.98 398.678L1087.11 404.266Z" fill="#9F1010"/>
<path d="M1089.75 410.161C1089.89 410.493 1090.02 410.828 1090.16 411.161L1102.28 406.14C1102.14 405.807 1102.01 405.472 1101.87 405.14L1089.75 410.161Z" fill="#9F1010"/>
<path d="M847.496 393.079C847.68 392.77 847.86 392.458 848.047 392.15L836.805 385.385C836.618 385.692 836.44 386.005 836.255 386.315L847.496 393.079Z" fill="#9F1010"/>
<path d="M831.028 489.767C830.956 489.415 830.893 489.06 830.825 488.707L817.958 491.266C818.026 491.619 818.09 491.974 818.161 492.326L831.028 489.767Z" fill="#9F1010"/>
<path d="M829.005 476.305C828.969 475.948 828.942 475.588 828.909 475.229L815.851 476.489C815.884 476.848 815.911 477.208 815.947 477.565L829.005 476.305Z" fill="#9F1010"/>
<path d="M829.867 483.203C829.813 482.848 829.769 482.491 829.718 482.135L816.741 484.061C816.792 484.417 816.837 484.775 816.89 485.13L829.867 483.203Z" fill="#9F1010"/>
<path d="M834.235 502.443C834.13 502.099 834.03 501.753 833.928 501.408L821.365 505.192C821.467 505.537 821.567 505.883 821.672 506.227L834.235 502.443Z" fill="#9F1010"/>
<path d="M832.446 496.015C832.358 495.666 832.275 495.316 832.189 494.966L819.457 498.131C819.541 498.48 819.625 498.831 819.712 499.18L832.446 496.015Z" fill="#9F1010"/>
<path d="M828.958 449.649C828.991 449.291 829.022 448.933 829.059 448.575L816.005 447.264C815.968 447.621 815.938 447.98 815.904 448.337L828.958 449.649Z" fill="#9F1010"/>
<path d="M836.43 509.031C836.307 508.693 836.191 508.351 836.071 508.012L823.718 512.434C823.838 512.773 823.954 513.114 824.077 513.452L836.43 509.031Z" fill="#9F1010"/>
<path d="M829.749 443.052C829.801 442.696 829.845 442.338 829.9 441.983L816.925 440.035C816.871 440.39 816.828 440.748 816.776 441.103L829.749 443.052Z" fill="#9F1010"/>
<path d="M828.474 456.595C828.49 456.236 828.501 455.876 828.52 455.517L815.417 454.875C815.398 455.234 815.388 455.594 815.372 455.954L828.474 456.595Z" fill="#9F1010"/>
<path d="M828.506 469.664C828.488 469.306 828.48 468.945 828.465 468.586L815.362 469.206C815.378 469.565 815.386 469.926 815.403 470.284L828.506 469.664Z" fill="#9F1010"/>
<path d="M873.165 563.611C872.898 563.37 872.633 563.125 872.368 562.881L863.541 572.585C863.807 572.828 864.071 573.073 864.338 573.315L873.165 563.611Z" fill="#9F1010"/>
<path d="M859.361 549.174C859.132 548.897 858.911 548.613 858.684 548.333L848.528 556.635C848.755 556.915 848.976 557.198 849.205 557.476L859.361 549.174Z" fill="#9F1010"/>
<path d="M855.229 543.906C855.014 543.617 854.806 543.324 854.593 543.034L844.042 550.829C844.256 551.119 844.464 551.413 844.679 551.701L855.229 543.906Z" fill="#9F1010"/>
<path d="M863.902 554.399C863.66 554.134 863.42 553.865 863.18 553.598L853.461 562.408C853.702 562.675 853.941 562.944 854.184 563.21L863.902 554.399Z" fill="#9F1010"/>
<path d="M878.248 567.982C877.969 567.754 877.692 567.524 877.414 567.294L869.072 577.418C869.349 577.648 869.627 577.877 869.906 578.105L878.248 567.982Z" fill="#9F1010"/>
<path d="M830.825 436.705C830.894 436.353 830.957 435.998 831.028 435.645L818.161 433.086C818.09 433.438 818.026 433.793 817.958 434.146L830.825 436.705Z" fill="#9F1010"/>
<path d="M844.493 527.049C844.323 526.732 844.158 526.412 843.989 526.094L832.407 532.256C832.575 532.574 832.74 532.894 832.911 533.211L844.493 527.049Z" fill="#9F1010"/>
<path d="M838.86 515.252C838.721 514.92 838.588 514.586 838.451 514.253L826.33 519.274C826.467 519.607 826.599 519.942 826.739 520.273L838.86 515.252Z" fill="#9F1010"/>
<path d="M851.536 538.706C851.334 538.408 851.141 538.104 850.942 537.804L840.034 545.092C840.233 545.392 840.427 545.696 840.628 545.994L851.536 538.706Z" fill="#9F1010"/>
<path d="M841.471 521.086C841.317 520.761 841.166 520.434 841.015 520.108L829.144 525.696C829.296 526.022 829.446 526.349 829.601 526.674L841.471 521.086Z" fill="#9F1010"/>
<path d="M847.931 533.07C847.744 532.762 847.566 532.45 847.382 532.141L836.13 538.887C836.314 539.195 836.493 539.508 836.679 539.816L847.931 533.07Z" fill="#9F1010"/>
<path d="M832.248 430.22C832.333 429.87 832.415 429.519 832.504 429.17L819.776 425.984C819.688 426.333 819.606 426.684 819.52 427.034L832.248 430.22Z" fill="#9F1010"/>
<path d="M893.864 346.378C894.171 346.192 894.484 346.013 894.793 345.829L888.046 334.577C887.738 334.762 887.425 334.94 887.117 335.126L893.864 346.378Z" fill="#9F1010"/>
<path d="M888.306 349.937C888.604 349.736 888.908 349.543 889.208 349.343L881.92 338.435C881.62 338.634 881.316 338.828 881.018 339.029L888.306 349.937Z" fill="#9F1010"/>
<path d="M863.327 371.65C863.569 371.383 863.812 371.116 864.055 370.851L854.352 362.024C854.108 362.289 853.866 362.555 853.624 362.823L863.327 371.65Z" fill="#9F1010"/>
<path d="M872.544 362.368C872.809 362.125 873.077 361.884 873.344 361.643L864.534 351.925C864.266 352.166 863.999 352.406 863.733 352.649L872.544 362.368Z" fill="#9F1010"/>
<path d="M877.825 357.772C878.102 357.544 878.386 357.322 878.665 357.095L870.364 346.939C870.085 347.166 869.801 347.388 869.523 347.616L877.825 357.772Z" fill="#9F1010"/>
<path d="M883.017 353.696C883.305 353.481 883.599 353.273 883.889 353.061L876.094 342.51C875.804 342.723 875.51 342.931 875.222 343.147L883.017 353.696Z" fill="#9F1010"/>
<path d="M917.901 334.859C918.239 334.736 918.58 334.62 918.919 334.5L914.498 322.147C914.158 322.267 913.817 322.383 913.479 322.505L917.901 334.859Z" fill="#9F1010"/>
<path d="M899.948 342.902C900.265 342.731 900.584 342.566 900.902 342.398L894.741 330.815C894.423 330.984 894.103 331.149 893.786 331.319L899.948 342.902Z" fill="#9F1010"/>
<path d="M911.759 337.26C912.091 337.121 912.426 336.988 912.759 336.852L907.738 324.73C907.405 324.866 907.07 324.999 906.739 325.138L911.759 337.26Z" fill="#9F1010"/>
<path d="M905.831 339.918C906.156 339.763 906.483 339.613 906.809 339.461L901.221 327.59C900.895 327.742 900.568 327.893 900.243 328.047L905.831 339.918Z" fill="#9F1010"/>
<path d="M859.019 376.663C859.247 376.384 859.476 376.106 859.706 375.829L849.582 367.488C849.352 367.764 849.123 368.043 848.896 368.321L859.019 376.663Z" fill="#9F1010"/>
<path d="M841.116 405.092C841.269 404.766 841.418 404.438 841.573 404.113L829.712 398.505C829.557 398.83 829.408 399.158 829.255 399.484L841.116 405.092Z" fill="#9F1010"/>
<path d="M838.452 411.16C838.589 410.828 838.722 410.492 838.861 410.161L826.74 405.14C826.6 405.471 826.468 405.806 826.331 406.139L838.452 411.16Z" fill="#9F1010"/>
<path d="M836.147 417.187C836.267 416.848 836.382 416.507 836.506 416.169L824.16 411.726C824.037 412.064 823.922 412.405 823.801 412.744L836.147 417.187Z" fill="#9F1010"/>
<path d="M924.553 332.641C924.897 332.536 925.243 332.435 925.588 332.333L921.804 319.77C921.459 319.872 921.113 319.973 920.77 320.078L924.553 332.641Z" fill="#9F1010"/>
<path d="M834.08 423.492C834.184 423.146 834.282 422.799 834.389 422.455L821.84 418.622C821.734 418.966 821.636 419.313 821.532 419.658L834.08 423.492Z" fill="#9F1010"/>
<path d="M850.943 387.61C851.142 387.31 851.335 387.007 851.537 386.708L840.629 379.419C840.428 379.718 840.235 380.022 840.035 380.322L850.943 387.61Z" fill="#9F1010"/>
<path d="M844.239 398.845C844.408 398.528 844.571 398.207 844.743 397.891L833.185 391.684C833.013 392 832.85 392.321 832.681 392.638L844.239 398.845Z" fill="#9F1010"/>
<path d="M854.735 382.187C854.948 381.897 855.157 381.603 855.372 381.315L844.834 373.502C844.619 373.79 844.411 374.084 844.198 374.374L854.735 382.187Z" fill="#9F1010"/>
<path d="M883.711 572.223C883.421 572.009 883.129 571.8 882.841 571.584L875.027 582.122C875.315 582.338 875.608 582.546 875.898 582.76L883.711 572.223Z" fill="#9F1010"/>
<path d="M850.963 684.806C850.686 684.663 850.413 684.514 850.137 684.37L844.243 695.714C844.519 695.859 844.792 696.008 845.069 696.151L850.963 684.806Z" fill="#9F1010"/>
<path d="M810.32 658.329C810.076 658.134 809.834 657.938 809.592 657.742L801.583 667.703C801.825 667.9 802.067 668.096 802.31 668.291L810.32 658.329Z" fill="#9F1010"/>
<path d="M830.627 672.994C830.365 672.824 830.107 672.649 829.846 672.479L822.892 683.206C823.153 683.376 823.411 683.551 823.673 683.72L830.627 672.994Z" fill="#9F1010"/>
<path d="M915.766 707.51C915.46 707.449 915.153 707.395 914.848 707.333L912.324 719.867C912.629 719.928 912.937 719.982 913.242 720.043L915.766 707.51Z" fill="#9F1010"/>
<path d="M773.607 621.955C773.409 621.714 773.217 621.468 773.02 621.226L763.103 629.29C763.299 629.532 763.492 629.777 763.689 630.019L773.607 621.955Z" fill="#9F1010"/>
<path d="M891.469 701.387C891.171 701.295 890.869 701.211 890.571 701.118L886.784 713.331C887.082 713.424 887.384 713.507 887.682 713.599L891.469 701.387Z" fill="#9F1010"/>
<path d="M873.766 695.19C873.476 695.075 873.189 694.955 872.899 694.84L868.189 706.727C868.48 706.842 868.766 706.963 869.057 707.078L873.766 695.19Z" fill="#9F1010"/>
<path d="M759.607 603.048C759.433 602.789 759.265 602.526 759.093 602.267L748.447 609.343C748.619 609.603 748.787 609.866 748.96 610.125L759.607 603.048Z" fill="#9F1010"/>
<path d="M723.786 518.45C723.72 518.145 723.652 517.842 723.587 517.537L711.084 520.205C711.149 520.51 711.217 520.813 711.282 521.118L723.786 518.45Z" fill="#9F1010"/>
<path d="M719.552 442.063C719.583 441.752 719.613 441.441 719.645 441.131L706.927 439.819C706.895 440.13 706.866 440.44 706.834 440.751L719.552 442.063Z" fill="#9F1010"/>
<path d="M719.799 493.742C719.765 493.433 719.727 493.125 719.694 492.815L706.985 494.196C707.017 494.507 707.056 494.814 707.09 495.124L719.799 493.742Z" fill="#9F1010"/>
<path d="M723.026 418.767C723.086 418.461 723.141 418.154 723.203 417.849L710.669 415.325C710.607 415.63 710.554 415.938 710.493 416.243L723.026 418.767Z" fill="#9F1010"/>
<path d="M939.486 711.325C939.176 711.294 938.865 711.264 938.555 711.232L937.244 723.949C937.554 723.982 937.865 724.011 938.175 724.042L939.486 711.325Z" fill="#9F1010"/>
<path d="M746.772 581.548C746.626 581.273 746.481 580.997 746.337 580.722L735.025 586.679C735.169 586.954 735.314 587.23 735.46 587.505L746.772 581.548Z" fill="#9F1010"/>
<path d="M729.822 541.203C729.727 540.905 729.628 540.611 729.534 540.313L717.342 544.167C717.436 544.464 717.536 544.759 717.63 545.056L729.822 541.203Z" fill="#9F1010"/>
<path d="M738.626 564.639C738.501 564.353 738.375 564.068 738.251 563.782L726.517 568.857C726.64 569.144 726.767 569.429 726.891 569.714L738.626 564.639Z" fill="#9F1010"/>
<path d="M1207.98 491.479C1207.95 491.789 1207.92 492.1 1207.89 492.41L1220.61 493.722C1220.64 493.412 1220.67 493.101 1220.7 492.79L1207.98 491.479Z" fill="#9F1010"/>
<path d="M1181.81 579.556C1181.67 579.832 1181.52 580.106 1181.38 580.382L1192.72 586.277C1192.87 586.001 1193.01 585.728 1193.16 585.451L1181.81 579.556Z" fill="#9F1010"/>
<path d="M1155.33 620.207C1155.14 620.451 1154.94 620.693 1154.74 620.935L1164.71 628.944C1164.9 628.701 1165.1 628.459 1165.29 628.216L1155.33 620.207Z" fill="#9F1010"/>
<path d="M1169.99 599.906C1169.82 600.167 1169.65 600.425 1169.48 600.687L1180.21 607.641C1180.38 607.38 1180.55 607.122 1180.72 606.86L1169.99 599.906Z" fill="#9F1010"/>
<path d="M1192.19 556.765C1192.08 557.055 1191.96 557.342 1191.84 557.632L1203.73 562.341C1203.84 562.052 1203.96 561.765 1204.08 561.475L1192.19 556.765Z" fill="#9F1010"/>
<path d="M729.137 394.511C729.228 394.213 729.311 393.912 729.404 393.615L717.192 389.828C717.099 390.125 717.016 390.426 716.924 390.724L729.137 394.511Z" fill="#9F1010"/>
<path d="M1198.39 539.042C1198.3 539.341 1198.22 539.642 1198.12 539.94L1210.34 543.727C1210.43 543.429 1210.51 543.127 1210.61 542.828L1198.39 539.042Z" fill="#9F1010"/>
<path d="M964.038 724.994L964.048 712.211C963.889 712.211 963.731 712.217 963.572 712.217C963.418 712.217 963.266 712.211 963.113 712.21L963.103 724.993C963.257 724.994 963.409 724.999 963.562 725C963.721 725 963.879 724.994 964.038 724.994Z" fill="#9F1010"/>
<path d="M1204.51 514.765C1204.45 515.071 1204.4 515.379 1204.33 515.684L1216.87 518.207C1216.93 517.902 1216.98 517.595 1217.04 517.289L1204.51 514.765Z" fill="#9F1010"/>
<path d="M1015.45 706.745C1015.14 706.811 1014.84 706.88 1014.54 706.944L1017.2 719.447C1017.51 719.383 1017.81 719.314 1018.12 719.249L1015.45 706.745Z" fill="#9F1010"/>
<path d="M989.883 710.984C989.576 711.032 989.27 711.085 988.962 711.132L990.924 723.764C991.232 723.717 991.538 723.665 991.846 723.617L989.883 710.984Z" fill="#9F1010"/>
<path d="M1038.18 700.716C1037.88 700.81 1037.59 700.911 1037.29 701.004L1041.14 713.195C1041.44 713.102 1041.74 713.002 1042.03 712.907L1038.18 700.716Z" fill="#9F1010"/>
<path d="M1078.53 683.766C1078.26 683.911 1077.98 684.056 1077.71 684.2L1083.66 695.512C1083.94 695.368 1084.22 695.223 1084.49 695.078L1078.53 683.766Z" fill="#9F1010"/>
<path d="M1100.05 670.924C1099.79 671.097 1099.52 671.265 1099.27 671.437L1106.34 682.083C1106.6 681.911 1106.86 681.742 1107.12 681.569L1100.05 670.924Z" fill="#9F1010"/>
<path d="M1118.95 656.928C1118.71 657.126 1118.46 657.318 1118.22 657.515L1126.28 667.433C1126.53 667.236 1126.77 667.043 1127.01 666.846L1118.95 656.928Z" fill="#9F1010"/>
<path d="M1061.64 691.905C1061.35 692.029 1061.07 692.156 1060.78 692.279L1065.86 704.014C1066.14 703.89 1066.43 703.764 1066.71 703.639L1061.64 691.905Z" fill="#9F1010"/>
<path d="M1180.74 351.958C1180.89 352.233 1181.03 352.509 1181.18 352.784L1192.49 346.827C1192.34 346.552 1192.2 346.276 1192.05 346L1180.74 351.958Z" fill="#9F1010"/>
<path d="M1167.92 330.486C1168.1 330.745 1168.26 331.008 1168.44 331.268L1179.08 324.191C1178.91 323.931 1178.74 323.669 1178.57 323.409L1167.92 330.486Z" fill="#9F1010"/>
<path d="M1188.9 368.894C1189.03 369.181 1189.15 369.466 1189.28 369.752L1201.01 364.677C1200.89 364.39 1200.76 364.105 1200.64 363.819L1188.9 368.894Z" fill="#9F1010"/>
<path d="M1203.75 415.083C1203.81 415.388 1203.88 415.692 1203.94 415.997L1216.45 413.329C1216.38 413.024 1216.31 412.72 1216.25 412.415L1203.75 415.083Z" fill="#9F1010"/>
<path d="M1197.7 392.311C1197.8 392.609 1197.9 392.903 1197.99 393.2L1210.18 389.346C1210.09 389.049 1209.99 388.754 1209.89 388.457L1197.7 392.311Z" fill="#9F1010"/>
<path d="M1153.9 311.546C1154.09 311.787 1154.29 312.033 1154.48 312.275L1164.4 304.211C1164.2 303.969 1164.01 303.724 1163.81 303.482L1153.9 311.546Z" fill="#9F1010"/>
<path d="M1096.9 260.542C1097.17 260.711 1097.42 260.886 1097.69 261.056L1104.64 250.33C1104.38 250.16 1104.12 249.985 1103.86 249.815L1096.9 260.542Z" fill="#9F1010"/>
<path d="M735.345 376.768C735.459 376.478 735.579 376.191 735.694 375.902L723.807 371.192C723.691 371.481 723.571 371.768 723.457 372.058L735.345 376.768Z" fill="#9F1010"/>
<path d="M718.316 466.59C718.316 466.431 718.323 466.272 718.323 466.113L705.54 466.103C705.539 466.263 705.533 466.421 705.533 466.58C705.533 466.733 705.538 466.885 705.538 467.038L718.322 467.048C718.322 466.895 718.316 466.744 718.316 466.59Z" fill="#9F1010"/>
<path d="M1137.52 640.121C1137.3 640.342 1137.08 640.562 1136.86 640.782L1145.89 649.827C1146.11 649.608 1146.33 649.387 1146.55 649.167L1137.52 640.121Z" fill="#9F1010"/>
<path d="M789.75 639.86L780.705 648.892C780.925 649.113 781.145 649.333 781.366 649.554L790.411 640.522C790.19 640.302 789.971 640.081 789.75 639.86Z" fill="#9F1010"/>
<path d="M1209.22 466.961C1209.22 467.114 1209.21 467.266 1209.21 467.419L1221.99 467.429C1221.99 467.276 1222 467.124 1222 466.97C1222 466.811 1221.99 466.653 1221.99 466.494L1209.21 466.484C1209.21 466.643 1209.22 466.801 1209.22 466.961Z" fill="#9F1010"/>
<path d="M790.013 293.412C790.233 293.191 790.454 292.971 790.675 292.751L781.643 283.706C781.421 283.926 781.201 284.146 780.981 284.366L790.013 293.412Z" fill="#9F1010"/>
<path d="M1137.78 293.675L1146.83 284.643C1146.61 284.423 1146.39 284.202 1146.17 283.982L1137.12 293.013C1137.34 293.234 1137.56 293.454 1137.78 293.675Z" fill="#9F1010"/>
<path d="M1220.44 438.402L1207.73 439.783C1207.77 440.092 1207.8 440.401 1207.84 440.71L1220.55 439.329C1220.51 439.019 1220.48 438.711 1220.44 438.402Z" fill="#9F1010"/>
<path d="M1076.51 248.7C1076.79 248.843 1077.06 248.992 1077.34 249.137L1083.23 237.792C1082.96 237.647 1082.68 237.498 1082.41 237.355L1076.51 248.7Z" fill="#9F1010"/>
<path d="M1117.17 275.172C1117.41 275.367 1117.65 275.563 1117.9 275.759L1125.91 265.797C1125.66 265.601 1125.42 265.405 1125.18 265.21L1117.17 275.172Z" fill="#9F1010"/>
<path d="M827.484 262.608C827.743 262.434 828.006 262.266 828.266 262.094L821.189 251.449C820.93 251.621 820.667 251.789 820.408 251.962L827.484 262.608Z" fill="#9F1010"/>
<path d="M848.943 249.794C849.217 249.648 849.493 249.504 849.769 249.359L843.812 238.047C843.537 238.192 843.261 238.336 842.986 238.482L848.943 249.794Z" fill="#9F1010"/>
<path d="M808.54 276.638C808.781 276.44 809.027 276.248 809.269 276.051L801.205 266.134C800.963 266.33 800.717 266.523 800.476 266.72L808.54 276.638Z" fill="#9F1010"/>
<path d="M745.707 354.006C745.851 353.729 745.999 353.455 746.143 353.179L734.798 347.284C734.655 347.56 734.505 347.834 734.362 348.111L745.707 354.006Z" fill="#9F1010"/>
<path d="M865.893 241.626C866.179 241.502 866.464 241.375 866.751 241.252L861.676 229.517C861.39 229.641 861.105 229.767 860.818 229.891L865.893 241.626Z" fill="#9F1010"/>
<path d="M772.175 313.359C772.37 313.116 772.566 312.874 772.761 312.632L762.799 304.623C762.604 304.865 762.408 305.107 762.213 305.35L772.175 313.359Z" fill="#9F1010"/>
<path d="M757.541 333.628C757.711 333.366 757.885 333.108 758.056 332.847L747.329 325.892C747.159 326.153 746.984 326.411 746.814 326.673L757.541 333.628Z" fill="#9F1010"/>
<path d="M989.562 222.549C989.872 222.58 990.183 222.608 990.493 222.641L991.804 209.923C991.494 209.891 991.183 209.863 990.873 209.831L989.562 222.549Z" fill="#9F1010"/>
<path d="M1011.77 226.025C1012.07 226.086 1012.38 226.14 1012.68 226.202L1015.21 213.668C1014.9 213.607 1014.6 213.553 1014.29 213.492L1011.77 226.025Z" fill="#9F1010"/>
<path d="M1053.76 238.346C1054.05 238.461 1054.34 238.58 1054.63 238.696L1059.34 226.809C1059.05 226.694 1058.77 226.573 1058.48 226.459L1053.76 238.346Z" fill="#9F1010"/>
<path d="M1036 232.13C1036.3 232.222 1036.6 232.305 1036.9 232.397L1040.68 220.185C1040.39 220.092 1040.08 220.009 1039.79 219.917L1036 232.13Z" fill="#9F1010"/>
<path d="M963.493 208.538L963.483 221.322C963.637 221.322 963.789 221.316 963.943 221.316C964.101 221.316 964.259 221.322 964.419 221.323L964.428 208.54C964.27 208.539 964.112 208.533 963.952 208.533C963.799 208.533 963.647 208.538 963.493 208.538Z" fill="#9F1010"/>
<path d="M912.085 226.785C912.389 226.719 912.693 226.651 912.998 226.587L910.33 214.083C910.025 214.147 909.722 214.216 909.417 214.281L912.085 226.785Z" fill="#9F1010"/>
<path d="M937.371 222.283C937.681 222.249 937.988 222.21 938.299 222.177L936.918 209.468C936.608 209.501 936.3 209.54 935.991 209.574L937.371 222.283Z" fill="#9F1010"/>
<path d="M889.289 232.834C889.586 232.74 889.881 232.64 890.179 232.546L886.325 220.355C886.027 220.448 885.732 220.549 885.435 220.643L889.289 232.834Z" fill="#9F1010"/>
<path d="M964 156L958.226 166L969.774 166L964 156ZM963 705L963 706L965 706L965 705L964 705L963 705ZM964 165L963 165L963 705L964 705L965 705L965 165L964 165Z" fill="#9F1010"/>
<path d="M964.01 838L969.783 828L958.236 828L964.01 838ZM965.01 289L965.01 288L963.01 288L963.01 289L964.01 289L965.01 289ZM964.01 829L965.01 829L965.01 289L964.01 289L963.01 289L963.01 829L964.01 829Z" fill="#9F1010"/>
<path d="M1305 467L1295 461.226V472.774L1305 467ZM625 467L635 472.774V461.226L625 467ZM1296 467V466L634 466V467V468L1296 468V467Z" fill="#9F1010"/>
<path d="M646.653 651.78C643.513 647.54 641.671 642.91 641.127 637.892C640.624 632.879 641.615 627.867 644.099 622.855C646.608 617.825 650.815 613.123 656.722 608.748C662.605 604.391 668.385 601.789 674.063 600.94C679.758 600.115 685.012 600.761 689.824 602.877C694.677 604.999 698.78 608.323 702.131 612.849C704.953 616.66 706.735 620.338 707.478 623.881C708.263 627.431 708.323 630.725 707.658 633.762C707.011 636.823 705.925 639.49 704.4 641.763C702.892 644.06 701.281 645.844 699.566 647.114C699.494 647.167 699.423 647.22 699.351 647.272C699.28 647.325 699.208 647.378 699.137 647.431L689.957 635.033C690.028 634.98 690.1 634.927 690.171 634.874C690.243 634.821 690.314 634.768 690.386 634.715C691.386 633.974 692.221 633.06 692.892 631.974C693.58 630.911 694.032 629.728 694.247 628.425C694.463 627.122 694.408 625.779 694.085 624.396C693.761 623.012 693.097 621.642 692.092 620.284C690.734 618.45 688.866 617.048 686.489 616.079C684.154 615.117 681.3 614.998 677.929 615.725C674.599 616.457 670.731 618.455 666.325 621.719C662.991 624.188 660.454 626.565 658.715 628.849C657 631.115 655.888 633.248 655.378 635.249C654.885 637.273 654.859 639.155 655.299 640.895C655.763 642.617 656.506 644.169 657.529 645.55C658.958 647.48 660.487 648.873 662.118 649.731C663.766 650.612 665.358 651.093 666.893 651.174C668.427 651.254 669.727 651.067 670.79 650.611L673.506 648.6L666.389 638.988L675.392 632.32L690.868 653.223L663.895 673.2L659.239 666.911L664.163 661.384C663.563 661.57 662.644 661.623 661.406 661.545C660.185 661.49 658.782 661.164 657.197 660.568C655.612 659.971 653.909 658.965 652.086 657.549C650.28 656.156 648.469 654.233 646.653 651.78Z" fill="#424F64"/>
<path d="M673.552 683.388L719.238 636.345L739.201 655.737C744.345 660.735 747.036 665.601 747.272 670.335C747.551 675.068 745.646 679.54 741.557 683.75C739.203 686.173 736.743 687.792 734.177 688.605C731.632 689.396 729.225 689.599 726.956 689.213C724.707 688.806 722.883 688.025 721.483 686.872C722.739 688.258 723.674 689.806 724.285 691.516C724.939 693.225 725.018 695.058 724.523 697.015C724.069 698.971 722.83 700.991 720.807 703.074C719.403 704.52 718.04 705.923 716.718 707.284C715.417 708.624 714.065 710.016 712.661 711.462C711.608 712.546 710.702 713.65 709.942 714.772C709.204 715.872 708.798 716.801 708.725 717.556L697.341 706.497C697.519 705.719 697.955 704.78 698.652 703.68C699.37 702.6 700.255 701.518 701.308 700.434C702.547 699.158 703.693 697.978 704.747 696.894C705.8 695.809 706.946 694.629 708.185 693.354C709.898 691.589 710.815 689.794 710.936 687.968C711.077 686.164 710.149 684.291 708.15 682.349L698.998 673.459L705.434 672.83L684.681 694.199L673.552 683.388ZM706.425 671.81L707.361 664.848L716.641 673.862C717.81 674.998 719.099 675.755 720.509 676.133C721.919 676.51 723.333 676.479 724.752 676.039C726.212 675.599 727.562 674.741 728.801 673.465C730.453 671.764 731.243 669.845 731.17 667.708C731.118 665.592 730.125 663.594 728.19 661.714L718.751 652.545L725.474 652.196L706.425 671.81Z" fill="#424F64"/>
<path d="M716.003 723.009L766.628 678.375L787.219 692.837L762.388 755.588L749.073 746.236L771.43 693.429L771.503 693.48L729.282 732.336L716.003 723.009ZM734.591 718.353L741.566 708.42L767.542 726.664L760.567 736.597L734.591 718.353Z" fill="#424F64"/>
<path d="M785.79 767.076L771.508 760.054L800.437 701.2L821.78 711.695C826.275 713.905 829.713 716.685 832.095 720.036C834.504 723.4 835.84 727.03 836.105 730.926C836.409 734.808 835.633 738.637 833.777 742.415C831.92 746.192 829.336 749.198 826.024 751.434C822.712 753.671 818.963 754.915 814.777 755.169C810.616 755.436 806.302 754.47 801.834 752.273L794.773 748.801L785.79 767.076ZM796.852 744.572L793.626 734.91L805.634 740.814C807.336 741.651 809.035 742.024 810.731 741.933C812.467 741.829 814.08 741.235 815.57 740.151C817.087 739.08 818.369 737.481 819.415 735.353C820.474 733.198 820.951 731.253 820.847 729.517C820.742 727.781 820.169 726.261 819.126 724.955C818.11 723.663 816.738 722.592 815.009 721.742L803 715.838L812.66 712.412L796.852 744.572Z" fill="#424F64"/>
<path d="M840.042 789.475L824.879 784.642L844.788 722.158L867.449 729.38C872.221 730.901 876.033 733.143 878.884 736.104C881.763 739.075 883.622 742.468 884.459 746.281C885.334 750.075 885.133 753.978 883.855 757.988C882.577 761.998 880.466 765.354 877.521 768.055C874.577 770.757 871.053 772.542 866.95 773.412C862.875 774.291 858.465 773.975 853.721 772.463L846.224 770.073L840.042 789.475ZM847.655 765.583L843.036 756.504L855.785 760.568C857.592 761.144 859.328 761.261 860.992 760.92C862.693 760.56 864.2 759.734 865.514 758.442C866.856 757.159 867.887 755.387 868.607 753.128C869.336 750.841 869.52 748.846 869.16 747.145C868.801 745.443 868.008 744.024 866.784 742.888C865.588 741.76 864.073 740.903 862.237 740.318L849.488 736.255L858.535 731.439L847.655 765.583Z" fill="#424F64"/>
<path d="M880.486 800.996L891.74 736.388L907.419 739.12L896.974 799.085L891.304 789.928L921.873 795.254L919.683 807.825L880.486 800.996Z" fill="#424F64"/>
<path d="M926.537 808.294L931.978 742.94L947.572 744.238L942.131 809.593L926.537 808.294Z" fill="#424F64"/>
<path d="M968.439 808.851L952.978 809.412L950.601 743.875L974.991 742.99L997.217 802.646L994.352 803.373L992.139 742.367L1007.56 741.808L1009.93 807.346L985.365 808.237L963.147 748.803L966.234 748.068L968.439 808.851Z" fill="#424F64"/>
<path d="M1050.93 800.238C1045.78 801.362 1040.8 801.142 1036 799.579C1031.22 797.981 1027.06 795.021 1023.51 790.698C1019.95 786.346 1017.39 780.579 1015.83 773.397C1014.27 766.243 1014.27 759.903 1015.82 754.377C1017.41 748.844 1020.15 744.317 1024.06 740.796C1027.98 737.24 1032.7 734.863 1038.2 733.664C1042.83 732.654 1046.92 732.537 1050.45 733.314C1054.01 734.055 1057.04 735.352 1059.54 737.204C1062.06 739.05 1064.05 741.135 1065.49 743.459C1066.97 745.777 1067.93 747.978 1068.39 750.063C1068.41 750.15 1068.43 750.237 1068.45 750.324C1068.46 750.411 1068.48 750.498 1068.5 750.585L1053.43 753.87C1053.41 753.783 1053.39 753.696 1053.37 753.609C1053.35 753.522 1053.34 753.435 1053.32 753.349C1053.05 752.132 1052.56 750.995 1051.85 749.938C1051.16 748.874 1050.27 747.977 1049.17 747.245C1048.07 746.514 1046.82 746.013 1045.43 745.74C1044.03 745.467 1042.51 745.511 1040.86 745.871C1038.63 746.357 1036.58 747.485 1034.73 749.255C1032.89 750.99 1031.61 753.544 1030.89 756.917C1030.19 760.255 1030.43 764.602 1031.59 769.96C1032.48 774.015 1033.6 777.304 1034.97 779.826C1036.33 782.32 1037.82 784.211 1039.44 785.497C1041.08 786.777 1042.79 787.573 1044.55 787.886C1046.31 788.169 1048.03 788.128 1049.71 787.762C1052.06 787.251 1053.96 786.427 1055.41 785.292C1056.89 784.15 1057.98 782.896 1058.68 781.529C1059.39 780.163 1059.75 778.901 1059.77 777.743L1059.05 774.442L1047.37 776.988L1044.98 766.041L1070.39 760.503L1077.54 793.301L1069.89 794.967L1066.87 788.208C1066.8 788.832 1066.47 789.692 1065.89 790.789C1065.34 791.88 1064.47 793.026 1063.27 794.227C1062.08 795.427 1060.46 796.569 1058.42 797.65C1056.41 798.725 1053.91 799.588 1050.93 800.238Z" fill="#424F64"/>
<path d="M1148.51 736.734C1149.73 739.371 1150.46 742.284 1150.69 745.474C1150.96 748.651 1150.59 751.856 1149.61 755.089C1148.61 758.294 1146.86 761.325 1144.36 764.179C1141.88 767.022 1138.51 769.432 1134.23 771.411C1128.56 774.037 1123.1 774.978 1117.86 774.236C1112.6 773.466 1107.84 771.259 1103.58 767.615C1099.31 763.971 1095.79 759.136 1093 753.11C1090.21 747.084 1088.82 741.279 1088.81 735.696C1088.8 730.085 1090.21 725.042 1093.03 720.566C1095.86 716.09 1100.11 712.539 1105.79 709.913C1110.5 707.735 1114.9 706.709 1119.01 706.834C1123.12 706.958 1126.79 707.886 1130.04 709.616C1133.29 711.346 1135.98 713.53 1138.12 716.167C1139.5 717.88 1140.61 719.638 1141.44 721.44L1126.99 728.123C1126.61 727.289 1126.2 726.547 1125.77 725.898C1124.64 724.166 1123.31 722.806 1121.78 721.817C1120.23 720.802 1118.54 720.227 1116.72 720.092C1114.89 719.957 1113 720.344 1111.03 721.252C1108.67 722.347 1106.87 724.01 1105.65 726.241C1104.44 728.432 1103.95 731.209 1104.16 734.571C1104.41 737.92 1105.57 741.841 1107.65 746.334C1109.72 750.826 1111.97 754.263 1114.37 756.644C1116.81 759.012 1119.26 760.459 1121.72 760.985C1124.21 761.498 1126.64 761.207 1129.01 760.112C1130.67 759.341 1132.01 758.347 1133.02 757.131C1134.05 755.902 1134.76 754.545 1135.15 753.058C1135.55 751.532 1135.65 749.95 1135.45 748.313C1135.28 746.663 1134.81 745.031 1134.07 743.417L1148.51 736.734Z" fill="#424F64"/>
<path d="M1167.89 753.034L1132.05 698.116L1145.38 689.416L1178.64 740.388L1168.25 737.561L1194.24 720.599L1201.21 731.285L1167.89 753.034Z" fill="#424F64"/>
<path d="M1230.27 674.314C1235.7 680.508 1238.06 686.638 1237.35 692.704C1236.66 698.75 1233.38 704.353 1227.5 709.515C1221.62 714.676 1215.63 717.205 1209.55 717.102C1203.47 716.999 1197.71 713.85 1192.27 707.656C1191.55 706.832 1190.8 705.974 1190.02 705.083C1189.21 704.17 1188.38 703.223 1187.52 702.242L1164.54 676.041L1176.5 665.543L1201.07 693.549C1201.69 694.262 1202.29 694.941 1202.86 695.588C1203.42 696.234 1203.96 696.846 1204.47 697.426C1207.09 700.411 1209.57 702.18 1211.9 702.731C1214.26 703.263 1216.72 702.405 1219.29 700.157C1221.85 697.909 1223.02 695.58 1222.8 693.171C1222.6 690.743 1221.19 688.036 1218.57 685.051L1190.6 653.168L1202.53 642.699L1230.27 674.314Z" fill="#424F64"/>
<path d="M1221.76 619.07C1224.8 615.424 1227.78 612.876 1230.72 611.426C1233.66 609.977 1236.5 609.485 1239.23 609.949C1241.99 610.39 1244.58 611.614 1246.99 613.623C1249.43 615.651 1251.13 617.873 1252.09 620.29C1253.02 622.687 1253.37 625.023 1253.14 627.296C1252.9 629.528 1252.22 631.443 1251.08 633.042C1252.4 631.553 1254.13 630.299 1256.29 629.279C1258.45 628.26 1260.87 627.88 1263.54 628.139C1266.22 628.398 1268.99 629.721 1271.86 632.109C1274.53 634.326 1276.51 636.88 1277.81 639.771C1279.08 642.642 1279.33 645.86 1278.57 649.425C1277.8 652.947 1275.66 656.817 1272.15 661.033L1254.73 681.99L1204.31 640.061L1221.76 619.07ZM1237.22 647.767L1230.61 649.038L1238.88 639.09C1240.86 636.72 1241.77 634.552 1241.63 632.586C1241.51 630.597 1240.62 628.911 1238.96 627.528C1237.84 626.599 1236.71 626.062 1235.56 625.915C1234.43 625.745 1233.26 625.989 1232.06 626.647C1230.86 627.305 1229.63 628.386 1228.38 629.89L1218.63 641.617L1217.57 631.422L1237.22 647.767ZM1260.9 655.723C1262.83 653.398 1263.73 651.211 1263.58 649.162C1263.43 647.113 1262.5 645.368 1260.76 643.928C1259.85 643.17 1258.89 642.637 1257.87 642.331C1256.87 642.002 1255.84 641.918 1254.79 642.078C1253.75 642.216 1252.71 642.606 1251.67 643.249C1250.64 643.891 1249.65 644.782 1248.7 645.922L1239.77 656.657L1239.82 649.928L1260.77 667.353L1250.56 668.167L1260.9 655.723Z" fill="#424F64"/>
<circle cx="964" cy="467" r="266" stroke="#9F1010" stroke-width="2" stroke-miterlimit="16"/>
<path d="M800.577 560C784.936 532.575 776 500.831 776 467C776 363.17 860.17 279 964 279C1067.83 279 1152 363.17 1152 467C1152 500.831 1143.06 532.575 1127.42 560" stroke="#9F1010" stroke-width="2" stroke-miterlimit="16" stroke-dasharray="9 9"/>
<path d="M703.337 407.753C711.55 407.753 718.279 408.898 723.525 411.188C728.824 413.478 732.745 416.78 735.288 421.094C737.832 425.355 739.103 430.389 739.103 436.194C739.103 441.999 737.964 446.953 735.686 451.054C733.407 455.102 730.519 458.244 727.022 460.481C723.525 462.665 719.975 463.89 716.372 464.156C720.134 464.263 724.002 465.248 727.976 467.112C731.95 468.923 735.288 471.879 737.99 475.98C740.693 480.028 742.044 485.434 742.044 492.198C742.044 498.589 740.746 504.315 738.149 509.375C735.606 514.381 731.5 518.349 725.83 521.279C720.16 524.155 712.583 525.593 703.099 525.593H657V407.753H703.337ZM680.606 462.319L672.419 455.368H695.786C702.039 455.368 706.728 454.036 709.854 451.373C712.981 448.657 714.544 445.009 714.544 440.428C714.544 437.339 713.881 434.809 712.557 432.839C711.232 430.815 709.272 429.323 706.675 428.365C704.079 427.406 700.873 426.927 697.058 426.927H669.478L680.606 415.103V462.319ZM698.33 506.339C704.37 506.339 708.954 504.954 712.08 502.185C715.259 499.362 716.849 495.554 716.849 490.76C716.849 488.044 716.372 485.674 715.418 483.65C714.517 481.626 713.219 479.948 711.524 478.616C709.828 477.232 707.761 476.193 705.324 475.501C702.94 474.755 700.29 474.382 697.376 474.382H672.419L680.606 467.512V518.163L669.478 506.339H698.33Z" fill="#424F64"/>
<path d="M740.593 525.593L769.842 407.593H808.867L837.957 525.593H812.682L789.315 422.692H789.474L765.868 525.593H740.593ZM761.576 498.27V478.936H817.212V498.27H761.576Z" fill="#424F64"/>
<path d="M843.686 525.593V407.753H868.404V518.163L857.277 505.38H912.039V525.593H843.686Z" fill="#424F64"/>
<path d="M919.565 525.593V407.753H944.283V518.163L933.156 505.38H987.918V525.593H919.565Z" fill="#424F64"/>
<path d="M990.118 525.593L1019.37 407.593H1058.39L1087.48 525.593H1062.21L1038.84 422.692H1039L1015.39 525.593H990.118ZM1011.1 498.27V478.936H1066.74V498.27H1011.1Z" fill="#424F64"/>
<path d="M1093.21 525.593V407.753H1140.74C1153.03 407.753 1162.2 410.575 1168.24 416.221C1174.33 421.813 1177.38 429.883 1177.38 440.428C1177.38 446.5 1176.21 451.693 1173.88 456.007C1171.6 460.268 1168.77 463.57 1165.38 465.914C1162.04 468.257 1158.81 469.562 1155.68 469.828C1158.91 470.041 1161.96 470.867 1164.82 472.305C1167.74 473.69 1170.12 475.9 1171.98 478.936C1173.83 481.972 1174.76 486.046 1174.76 491.159C1174.76 494.941 1174.76 498.669 1174.76 502.344C1174.76 506.019 1174.76 509.774 1174.76 513.609C1174.76 516.219 1174.94 518.642 1175.31 520.879C1175.74 523.063 1176.35 524.634 1177.14 525.593H1152.42C1151.73 524.528 1151.18 522.93 1150.75 520.799C1150.33 518.616 1150.12 516.219 1150.12 513.609C1150.12 510.2 1150.12 506.951 1150.12 503.862C1150.12 500.72 1150.12 497.444 1150.12 494.036C1150.12 489.402 1148.93 485.833 1146.54 483.33C1144.16 480.774 1140.34 479.495 1135.1 479.495H1110.78L1117.37 471.586V525.593H1093.21ZM1117.37 469.349L1110.78 460.321H1135.41C1138.59 460.321 1141.43 459.602 1143.92 458.164C1146.41 456.726 1148.37 454.676 1149.8 452.013C1151.28 449.349 1152.03 446.234 1152.03 442.665C1152.03 437.659 1150.52 433.771 1147.5 431.001C1144.53 428.231 1140.34 426.847 1134.94 426.847H1110.22L1117.37 418.778V469.349Z" fill="#424F64"/>
<path d="M1186.63 525.593V407.753H1224.54C1232.39 407.753 1239.51 409.191 1245.92 412.067C1252.39 414.89 1257.92 418.911 1262.53 424.13C1267.2 429.297 1270.77 435.475 1273.26 442.665C1275.75 449.855 1277 457.791 1277 466.473C1277 475.154 1275.75 483.117 1273.26 490.361C1270.77 497.604 1267.2 503.862 1262.53 509.135C1257.92 514.355 1252.39 518.403 1245.92 521.279C1239.51 524.155 1232.39 525.593 1224.54 525.593H1186.63ZM1211.43 518.243L1200.3 506.419H1221.36C1227.09 506.419 1232.25 504.821 1236.86 501.625C1241.53 498.376 1245.21 493.769 1247.91 487.804C1250.61 481.786 1251.96 474.675 1251.96 466.473C1251.96 458.217 1250.61 451.16 1247.91 445.302C1245.21 439.39 1241.53 434.862 1236.86 431.72C1232.25 428.524 1227.09 426.927 1221.36 426.927H1200.3L1211.43 415.103V518.243Z" fill="#424F64"/>
<path d="M976.413 660.719C1019.53 657.7 1060.29 639.231 1091.05 608.468C1092.34 607.184 1093.6 605.882 1094.84 604.563L1064.77 592.497C1091.51 593.324 1114.18 574.685 1124.9 561.154L1124.37 562.475C1124.64 561.938 1124.91 561.4 1125.17 560.86C1119.44 593.901 1103.65 624.632 1079.62 648.663C1052.93 675.352 1017.98 691.871 980.777 695.739C970.87 700.652 965.199 711.008 963.11 717.875C961.105 710.967 955.639 700.53 946.079 695.653C909.185 691.629 874.549 675.155 848.058 648.663C824.266 624.872 808.555 594.511 802.684 561.846L802.508 561.407C802.549 561.459 802.591 561.511 802.633 561.563C802.591 561.329 802.548 561.095 802.508 560.86C802.745 561.342 802.986 561.822 803.228 562.301C814.214 575.743 836.474 593.559 862.633 592.75L832.938 604.666C834.148 605.949 835.377 607.217 836.627 608.468C867.741 639.582 909.079 658.122 952.745 660.818V544.72H976.413V660.719ZM964.579 271C980.207 271 992.877 283.669 992.877 299.298C992.877 309.541 987.434 318.513 979.283 323.479H1031.98V323.993L1018.44 340.973H976.413V392.425H952.745V340.973H908.043L894.091 323.479H949.874C941.723 318.513 936.281 309.541 936.281 299.298C936.281 283.669 948.951 271 964.579 271ZM964.579 289.522C959.18 289.523 954.804 293.899 954.804 299.298L954.815 299.801C955.077 304.966 959.349 309.073 964.579 309.073C969.978 309.073 974.353 304.697 974.354 299.298C974.353 294.068 970.247 289.796 965.082 289.534L964.579 289.522Z" fill="#424F64"/>
<path d="M814 861V879H1109V861" stroke="#9F1010" stroke-width="2"/>
<path d="M873 861L873 879" stroke="#9F1010" stroke-width="2"/>
<path d="M861 869L861 879" stroke="#9F1010" stroke-width="2"/>
<path d="M849 869L849 879" stroke="#9F1010" stroke-width="2"/>
<path d="M838 869L838 879" stroke="#9F1010" stroke-width="2"/>
<path d="M838 879L838 889" stroke="#9F1010" stroke-width="2"/>
<path d="M845 879L845 889" stroke="#9F1010" stroke-width="2"/>
<path d="M852 879L852 889" stroke="#9F1010" stroke-width="2"/>
<path d="M859 879L859 889" stroke="#9F1010" stroke-width="2"/>
<path d="M866 879L866 889" stroke="#9F1010" stroke-width="2"/>
<path d="M826 869L826 879" stroke="#9F1010" stroke-width="2"/>
<path d="M873 879V889" stroke="#9F1010" stroke-width="2"/>
<path d="M909 879.5V889.5" stroke="#9F1010" stroke-width="2"/>
<path d="M945 879.5V889.5" stroke="#9F1010" stroke-width="2"/>
<path d="M981 879.5V889.5" stroke="#9F1010" stroke-width="2"/>
<path d="M1017 879.5V889.5" stroke="#9F1010" stroke-width="2"/>
<path d="M1053 879.5V889.5" stroke="#9F1010" stroke-width="2"/>
<path d="M1089 879.5V889.5" stroke="#9F1010" stroke-width="2"/>
<path d="M932 861L932 879" stroke="#9F1010" stroke-width="2"/>
<path d="M991 861L991 879" stroke="#9F1010" stroke-width="2"/>
<path d="M1050 861L1050 879" stroke="#9F1010" stroke-width="2"/>
<path d="M817.162 850.38H813.676L813.358 852.9C813.37 852.856 813.41 852.798 813.478 852.726C813.55 852.654 813.652 852.582 813.784 852.51C813.92 852.434 814.088 852.37 814.288 852.318C814.488 852.266 814.72 852.24 814.984 852.24C815.76 852.24 816.35 852.5 816.754 853.02C817.158 853.54 817.36 854.222 817.36 855.066C817.36 855.73 817.25 856.29 817.03 856.746C816.81 857.202 816.486 857.548 816.058 857.784C815.63 858.016 815.106 858.132 814.486 858.132C813.978 858.132 813.542 858.058 813.178 857.91C812.818 857.758 812.526 857.554 812.302 857.298C812.078 857.038 811.914 856.746 811.81 856.422C811.706 856.094 811.654 855.754 811.654 855.402C811.654 855.398 811.654 855.394 811.654 855.39C811.654 855.386 811.654 855.382 811.654 855.378H813.22C813.22 855.382 813.22 855.386 813.22 855.39C813.22 855.394 813.22 855.398 813.22 855.402C813.232 855.886 813.342 856.252 813.55 856.5C813.762 856.748 814.082 856.872 814.51 856.872C814.782 856.872 815.01 856.808 815.194 856.68C815.382 856.548 815.524 856.352 815.62 856.092C815.72 855.828 815.77 855.496 815.77 855.096C815.77 854.564 815.674 854.154 815.482 853.866C815.294 853.578 815 853.434 814.6 853.434C814.356 853.434 814.142 853.482 813.958 853.578C813.774 853.67 813.624 853.784 813.508 853.92C813.392 854.056 813.308 854.188 813.256 854.316L811.75 853.932L812.386 849.15H817.162V850.38Z" fill="#9F1010"/>
<path d="M841.162 895.38H837.676L837.358 897.9C837.37 897.856 837.41 897.798 837.478 897.726C837.55 897.654 837.652 897.582 837.784 897.51C837.92 897.434 838.088 897.37 838.288 897.318C838.488 897.266 838.72 897.24 838.984 897.24C839.76 897.24 840.35 897.5 840.754 898.02C841.158 898.54 841.36 899.222 841.36 900.066C841.36 900.73 841.25 901.29 841.03 901.746C840.81 902.202 840.486 902.548 840.058 902.784C839.63 903.016 839.106 903.132 838.486 903.132C837.978 903.132 837.542 903.058 837.178 902.91C836.818 902.758 836.526 902.554 836.302 902.298C836.078 902.038 835.914 901.746 835.81 901.422C835.706 901.094 835.654 900.754 835.654 900.402C835.654 900.398 835.654 900.394 835.654 900.39C835.654 900.386 835.654 900.382 835.654 900.378H837.22C837.22 900.382 837.22 900.386 837.22 900.39C837.22 900.394 837.22 900.398 837.22 900.402C837.232 900.886 837.342 901.252 837.55 901.5C837.762 901.748 838.082 901.872 838.51 901.872C838.782 901.872 839.01 901.808 839.194 901.68C839.382 901.548 839.524 901.352 839.62 901.092C839.72 900.828 839.77 900.496 839.77 900.096C839.77 899.564 839.674 899.154 839.482 898.866C839.294 898.578 839 898.434 838.6 898.434C838.356 898.434 838.142 898.482 837.958 898.578C837.774 898.67 837.624 898.784 837.508 898.92C837.392 899.056 837.308 899.188 837.256 899.316L835.75 898.932L836.386 894.15H841.162V895.38Z" fill="#9F1010"/>
<path d="M872.953 858.132C872.417 858.132 871.959 858.012 871.579 857.772C871.203 857.532 870.897 857.202 870.661 856.782C870.429 856.362 870.259 855.88 870.151 855.336C870.043 854.788 869.989 854.208 869.989 853.596C869.989 852.984 870.043 852.404 870.151 851.856C870.259 851.304 870.429 850.816 870.661 850.392C870.897 849.968 871.203 849.634 871.579 849.39C871.959 849.146 872.417 849.024 872.953 849.024C873.489 849.024 873.945 849.146 874.321 849.39C874.701 849.634 875.007 849.968 875.239 850.392C875.471 850.816 875.641 851.304 875.749 851.856C875.861 852.404 875.917 852.984 875.917 853.596C875.917 854.208 875.861 854.788 875.749 855.336C875.641 855.88 875.471 856.362 875.239 856.782C875.007 857.202 874.701 857.532 874.321 857.772C873.945 858.012 873.489 858.132 872.953 858.132ZM872.953 856.872C873.257 856.872 873.509 856.758 873.709 856.53C873.909 856.298 874.061 855.94 874.165 855.456C874.269 854.972 874.321 854.352 874.321 853.596C874.321 852.836 874.269 852.214 874.165 851.73C874.061 851.246 873.909 850.89 873.709 850.662C873.509 850.43 873.257 850.314 872.953 850.314C872.653 850.314 872.401 850.43 872.197 850.662C871.993 850.89 871.839 851.246 871.735 851.73C871.631 852.214 871.579 852.836 871.579 853.596C871.579 854.356 871.631 854.978 871.735 855.462C871.839 855.942 871.993 856.298 872.197 856.53C872.401 856.758 872.653 856.872 872.953 856.872Z" fill="#9F1010"/>
<path d="M872.953 903.132C872.417 903.132 871.959 903.012 871.579 902.772C871.203 902.532 870.897 902.202 870.661 901.782C870.429 901.362 870.259 900.88 870.151 900.336C870.043 899.788 869.989 899.208 869.989 898.596C869.989 897.984 870.043 897.404 870.151 896.856C870.259 896.304 870.429 895.816 870.661 895.392C870.897 894.968 871.203 894.634 871.579 894.39C871.959 894.146 872.417 894.024 872.953 894.024C873.489 894.024 873.945 894.146 874.321 894.39C874.701 894.634 875.007 894.968 875.239 895.392C875.471 895.816 875.641 896.304 875.749 896.856C875.861 897.404 875.917 897.984 875.917 898.596C875.917 899.208 875.861 899.788 875.749 900.336C875.641 900.88 875.471 901.362 875.239 901.782C875.007 902.202 874.701 902.532 874.321 902.772C873.945 903.012 873.489 903.132 872.953 903.132ZM872.953 901.872C873.257 901.872 873.509 901.758 873.709 901.53C873.909 901.298 874.061 900.94 874.165 900.456C874.269 899.972 874.321 899.352 874.321 898.596C874.321 897.836 874.269 897.214 874.165 896.73C874.061 896.246 873.909 895.89 873.709 895.662C873.509 895.43 873.257 895.314 872.953 895.314C872.653 895.314 872.401 895.43 872.197 895.662C871.993 895.89 871.839 896.246 871.735 896.73C871.631 897.214 871.579 897.836 871.579 898.596C871.579 899.356 871.631 899.978 871.735 900.462C871.839 900.942 871.993 901.298 872.197 901.53C872.401 901.758 872.653 901.872 872.953 901.872Z" fill="#9F1010"/>
<path d="M911.576 895.38H908.09L907.772 897.9C907.784 897.856 907.824 897.798 907.892 897.726C907.964 897.654 908.066 897.582 908.198 897.51C908.334 897.434 908.502 897.37 908.702 897.318C908.902 897.266 909.134 897.24 909.398 897.24C910.174 897.24 910.764 897.5 911.168 898.02C911.572 898.54 911.774 899.222 911.774 900.066C911.774 900.73 911.664 901.29 911.444 901.746C911.224 902.202 910.9 902.548 910.472 902.784C910.044 903.016 909.52 903.132 908.9 903.132C908.392 903.132 907.956 903.058 907.592 902.91C907.232 902.758 906.94 902.554 906.716 902.298C906.492 902.038 906.328 901.746 906.224 901.422C906.12 901.094 906.068 900.754 906.068 900.402C906.068 900.398 906.068 900.394 906.068 900.39C906.068 900.386 906.068 900.382 906.068 900.378H907.634C907.634 900.382 907.634 900.386 907.634 900.39C907.634 900.394 907.634 900.398 907.634 900.402C907.646 900.886 907.756 901.252 907.964 901.5C908.176 901.748 908.496 901.872 908.924 901.872C909.196 901.872 909.424 901.808 909.608 901.68C909.796 901.548 909.938 901.352 910.034 901.092C910.134 900.828 910.184 900.496 910.184 900.096C910.184 899.564 910.088 899.154 909.896 898.866C909.708 898.578 909.414 898.434 909.014 898.434C908.77 898.434 908.556 898.482 908.372 898.578C908.188 898.67 908.038 898.784 907.922 898.92C907.806 899.056 907.722 899.188 907.67 899.316L906.164 898.932L906.8 894.15H911.576V895.38Z" fill="#9F1010"/>
<path d="M943.29 894.132V903H941.718V895.662C941.678 895.702 941.572 895.756 941.4 895.824C941.232 895.888 941.028 895.95 940.788 896.01C940.552 896.066 940.306 896.106 940.05 896.13V894.846C940.306 894.814 940.552 894.758 940.788 894.678C941.028 894.598 941.234 894.51 941.406 894.414C941.578 894.314 941.694 894.22 941.754 894.132H943.29ZM948.089 903.132C947.553 903.132 947.095 903.012 946.715 902.772C946.339 902.532 946.033 902.202 945.797 901.782C945.565 901.362 945.395 900.88 945.287 900.336C945.179 899.788 945.125 899.208 945.125 898.596C945.125 897.984 945.179 897.404 945.287 896.856C945.395 896.304 945.565 895.816 945.797 895.392C946.033 894.968 946.339 894.634 946.715 894.39C947.095 894.146 947.553 894.024 948.089 894.024C948.625 894.024 949.081 894.146 949.457 894.39C949.837 894.634 950.143 894.968 950.375 895.392C950.607 895.816 950.777 896.304 950.885 896.856C950.997 897.404 951.053 897.984 951.053 898.596C951.053 899.208 950.997 899.788 950.885 900.336C950.777 900.88 950.607 901.362 950.375 901.782C950.143 902.202 949.837 902.532 949.457 902.772C949.081 903.012 948.625 903.132 948.089 903.132ZM948.089 901.872C948.393 901.872 948.645 901.758 948.845 901.53C949.045 901.298 949.197 900.94 949.301 900.456C949.405 899.972 949.457 899.352 949.457 898.596C949.457 897.836 949.405 897.214 949.301 896.73C949.197 896.246 949.045 895.89 948.845 895.662C948.645 895.43 948.393 895.314 948.089 895.314C947.789 895.314 947.537 895.43 947.333 895.662C947.129 895.89 946.975 896.246 946.871 896.73C946.767 897.214 946.715 897.836 946.715 898.596C946.715 899.356 946.767 899.978 946.871 900.462C946.975 900.942 947.129 901.298 947.333 901.53C947.537 901.758 947.789 901.872 948.089 901.872Z" fill="#9F1010"/>
<path d="M979.231 894.132V903H977.659V895.662C977.619 895.702 977.513 895.756 977.341 895.824C977.173 895.888 976.969 895.95 976.729 896.01C976.493 896.066 976.247 896.106 975.991 896.13V894.846C976.247 894.814 976.493 894.758 976.729 894.678C976.969 894.598 977.175 894.51 977.347 894.414C977.519 894.314 977.635 894.22 977.695 894.132H979.231ZM986.713 895.38H983.227L982.909 897.9C982.921 897.856 982.961 897.798 983.029 897.726C983.101 897.654 983.203 897.582 983.335 897.51C983.471 897.434 983.639 897.37 983.839 897.318C984.039 897.266 984.271 897.24 984.535 897.24C985.311 897.24 985.901 897.5 986.305 898.02C986.709 898.54 986.911 899.222 986.911 900.066C986.911 900.73 986.801 901.29 986.581 901.746C986.361 902.202 986.037 902.548 985.609 902.784C985.181 903.016 984.657 903.132 984.037 903.132C983.529 903.132 983.093 903.058 982.729 902.91C982.369 902.758 982.077 902.554 981.853 902.298C981.629 902.038 981.465 901.746 981.361 901.422C981.257 901.094 981.205 900.754 981.205 900.402C981.205 900.398 981.205 900.394 981.205 900.39C981.205 900.386 981.205 900.382 981.205 900.378H982.771C982.771 900.382 982.771 900.386 982.771 900.39C982.771 900.394 982.771 900.398 982.771 900.402C982.783 900.886 982.893 901.252 983.101 901.5C983.313 901.748 983.633 901.872 984.061 901.872C984.333 901.872 984.561 901.808 984.745 901.68C984.933 901.548 985.075 901.352 985.171 901.092C985.271 900.828 985.321 900.496 985.321 900.096C985.321 899.564 985.225 899.154 985.033 898.866C984.845 898.578 984.551 898.434 984.151 898.434C983.907 898.434 983.693 898.482 983.509 898.578C983.325 898.67 983.175 898.784 983.059 898.92C982.943 899.056 982.859 899.188 982.807 899.316L981.301 898.932L981.937 894.15H986.713V895.38Z" fill="#9F1010"/>
<path d="M1010.98 903V901.686C1011.01 901.57 1011.11 901.416 1011.28 901.224C1011.45 901.028 1011.66 900.814 1011.91 900.582C1012.15 900.35 1012.41 900.116 1012.68 899.88C1012.95 899.644 1013.2 899.426 1013.43 899.226C1013.71 898.982 1013.98 898.728 1014.25 898.464C1014.52 898.2 1014.74 897.922 1014.92 897.63C1015.09 897.338 1015.18 897.028 1015.18 896.7C1015.18 896.264 1015.08 895.922 1014.87 895.674C1014.66 895.422 1014.34 895.296 1013.92 895.296C1013.57 895.296 1013.29 895.372 1013.09 895.524C1012.88 895.672 1012.74 895.88 1012.65 896.148C1012.56 896.416 1012.52 896.728 1012.52 897.084H1010.93C1010.93 896.464 1011.04 895.926 1011.27 895.47C1011.5 895.01 1011.84 894.654 1012.28 894.402C1012.73 894.15 1013.28 894.024 1013.93 894.024C1014.56 894.024 1015.09 894.142 1015.51 894.378C1015.93 894.61 1016.24 894.93 1016.45 895.338C1016.66 895.742 1016.77 896.2 1016.77 896.712C1016.77 897.06 1016.7 897.388 1016.57 897.696C1016.44 898 1016.27 898.284 1016.06 898.548C1015.86 898.812 1015.63 899.054 1015.4 899.274C1015.16 899.494 1014.94 899.694 1014.72 899.874C1014.37 900.162 1014.05 900.428 1013.78 900.672C1013.51 900.912 1013.28 901.122 1013.11 901.302C1012.94 901.482 1012.84 901.63 1012.8 901.746H1016.75V903H1010.98ZM1021.06 903.132C1020.52 903.132 1020.06 903.012 1019.68 902.772C1019.31 902.532 1019 902.202 1018.76 901.782C1018.53 901.362 1018.36 900.88 1018.25 900.336C1018.15 899.788 1018.09 899.208 1018.09 898.596C1018.09 897.984 1018.15 897.404 1018.25 896.856C1018.36 896.304 1018.53 895.816 1018.76 895.392C1019 894.968 1019.31 894.634 1019.68 894.39C1020.06 894.146 1020.52 894.024 1021.06 894.024C1021.59 894.024 1022.05 894.146 1022.42 894.39C1022.8 894.634 1023.11 894.968 1023.34 895.392C1023.57 895.816 1023.74 896.304 1023.85 896.856C1023.96 897.404 1024.02 897.984 1024.02 898.596C1024.02 899.208 1023.96 899.788 1023.85 900.336C1023.74 900.88 1023.57 901.362 1023.34 901.782C1023.11 902.202 1022.8 902.532 1022.42 902.772C1022.05 903.012 1021.59 903.132 1021.06 903.132ZM1021.06 901.872C1021.36 901.872 1021.61 901.758 1021.81 901.53C1022.01 901.298 1022.16 900.94 1022.27 900.456C1022.37 899.972 1022.42 899.352 1022.42 898.596C1022.42 897.836 1022.37 897.214 1022.27 896.73C1022.16 896.246 1022.01 895.89 1021.81 895.662C1021.61 895.43 1021.36 895.314 1021.06 895.314C1020.76 895.314 1020.5 895.43 1020.3 895.662C1020.1 895.89 1019.94 896.246 1019.84 896.73C1019.73 897.214 1019.68 897.836 1019.68 898.596C1019.68 899.356 1019.73 899.978 1019.84 900.462C1019.94 900.942 1020.1 901.298 1020.3 901.53C1020.5 901.758 1020.76 901.872 1021.06 901.872Z" fill="#9F1010"/>
<path d="M1046.92 903V901.686C1046.95 901.57 1047.05 901.416 1047.22 901.224C1047.39 901.028 1047.6 900.814 1047.85 900.582C1048.09 900.35 1048.35 900.116 1048.62 899.88C1048.89 899.644 1049.14 899.426 1049.37 899.226C1049.65 898.982 1049.92 898.728 1050.19 898.464C1050.46 898.2 1050.68 897.922 1050.86 897.63C1051.03 897.338 1051.12 897.028 1051.12 896.7C1051.12 896.264 1051.02 895.922 1050.81 895.674C1050.6 895.422 1050.28 895.296 1049.86 895.296C1049.51 895.296 1049.23 895.372 1049.03 895.524C1048.82 895.672 1048.68 895.88 1048.59 896.148C1048.5 896.416 1048.46 896.728 1048.46 897.084H1046.87C1046.87 896.464 1046.98 895.926 1047.21 895.47C1047.44 895.01 1047.78 894.654 1048.22 894.402C1048.67 894.15 1049.22 894.024 1049.87 894.024C1050.5 894.024 1051.03 894.142 1051.45 894.378C1051.87 894.61 1052.18 894.93 1052.39 895.338C1052.6 895.742 1052.71 896.2 1052.71 896.712C1052.71 897.06 1052.64 897.388 1052.51 897.696C1052.38 898 1052.21 898.284 1052 898.548C1051.8 898.812 1051.57 899.054 1051.34 899.274C1051.1 899.494 1050.88 899.694 1050.66 899.874C1050.31 900.162 1049.99 900.428 1049.72 900.672C1049.45 900.912 1049.22 901.122 1049.05 901.302C1048.88 901.482 1048.78 901.63 1048.74 901.746H1052.69V903H1046.92ZM1059.68 895.38H1056.19L1055.88 897.9C1055.89 897.856 1055.93 897.798 1056 897.726C1056.07 897.654 1056.17 897.582 1056.3 897.51C1056.44 897.434 1056.61 897.37 1056.81 897.318C1057.01 897.266 1057.24 897.24 1057.5 897.24C1058.28 897.24 1058.87 897.5 1059.27 898.02C1059.68 898.54 1059.88 899.222 1059.88 900.066C1059.88 900.73 1059.77 901.29 1059.55 901.746C1059.33 902.202 1059 902.548 1058.58 902.784C1058.15 903.016 1057.62 903.132 1057 903.132C1056.5 903.132 1056.06 903.058 1055.7 902.91C1055.34 902.758 1055.04 902.554 1054.82 902.298C1054.6 902.038 1054.43 901.746 1054.33 901.422C1054.22 901.094 1054.17 900.754 1054.17 900.402C1054.17 900.398 1054.17 900.394 1054.17 900.39C1054.17 900.386 1054.17 900.382 1054.17 900.378H1055.74C1055.74 900.382 1055.74 900.386 1055.74 900.39C1055.74 900.394 1055.74 900.398 1055.74 900.402C1055.75 900.886 1055.86 901.252 1056.07 901.5C1056.28 901.748 1056.6 901.872 1057.03 901.872C1057.3 901.872 1057.53 901.808 1057.71 901.68C1057.9 901.548 1058.04 901.352 1058.14 901.092C1058.24 900.828 1058.29 900.496 1058.29 900.096C1058.29 899.564 1058.19 899.154 1058 898.866C1057.81 898.578 1057.52 898.434 1057.12 898.434C1056.87 898.434 1056.66 898.482 1056.48 898.578C1056.29 898.67 1056.14 898.784 1056.03 898.92C1055.91 899.056 1055.83 899.188 1055.77 899.316L1054.27 898.932L1054.9 894.15H1059.68V895.38Z" fill="#9F1010"/>
<path d="M1087.18 898.338C1087.53 898.35 1087.83 898.448 1088.06 898.632C1088.3 898.816 1088.49 899.062 1088.61 899.37C1088.73 899.674 1088.8 900.014 1088.8 900.39C1088.8 900.89 1088.69 901.348 1088.49 901.764C1088.29 902.18 1087.98 902.512 1087.55 902.76C1087.13 903.008 1086.59 903.132 1085.93 903.132C1085.37 903.132 1084.9 903.06 1084.52 902.916C1084.15 902.768 1083.85 902.562 1083.62 902.298C1083.4 902.03 1083.24 901.718 1083.14 901.362C1083.04 901.006 1082.99 900.622 1082.99 900.21C1082.99 900.206 1082.99 900.202 1082.99 900.198C1082.99 900.194 1082.99 900.19 1082.99 900.186H1084.57C1084.57 900.19 1084.57 900.194 1084.57 900.198C1084.57 900.202 1084.57 900.206 1084.57 900.21C1084.57 900.646 1084.63 900.984 1084.74 901.224C1084.85 901.464 1085.01 901.632 1085.21 901.728C1085.42 901.824 1085.66 901.872 1085.95 901.872C1086.33 901.872 1086.63 901.752 1086.86 901.512C1087.09 901.268 1087.21 900.88 1087.21 900.348C1087.21 900.144 1087.18 899.958 1087.14 899.79C1087.1 899.618 1087.02 899.472 1086.91 899.352C1086.81 899.228 1086.67 899.132 1086.49 899.064C1086.31 898.996 1086.08 898.962 1085.8 898.962H1085.49V897.81H1085.8C1086.07 897.81 1086.3 897.774 1086.48 897.702C1086.66 897.63 1086.8 897.534 1086.91 897.414C1087.01 897.29 1087.09 897.15 1087.13 896.994C1087.18 896.838 1087.21 896.676 1087.21 896.508C1087.21 896.084 1087.09 895.776 1086.86 895.584C1086.64 895.392 1086.34 895.296 1085.97 895.296C1085.56 895.296 1085.22 895.408 1084.96 895.632C1084.7 895.856 1084.57 896.26 1084.57 896.844H1082.99C1082.99 896.452 1083.04 896.086 1083.16 895.746C1083.27 895.406 1083.45 895.108 1083.68 894.852C1083.92 894.592 1084.22 894.39 1084.6 894.246C1084.97 894.098 1085.42 894.024 1085.94 894.024C1086.6 894.024 1087.14 894.136 1087.56 894.36C1087.98 894.584 1088.29 894.88 1088.49 895.248C1088.69 895.612 1088.8 896.004 1088.8 896.424C1088.8 896.76 1088.73 897.07 1088.61 897.354C1088.49 897.638 1088.3 897.87 1088.06 898.05C1087.83 898.226 1087.53 898.322 1087.18 898.338ZM1093.09 903.132C1092.56 903.132 1092.1 903.012 1091.72 902.772C1091.34 902.532 1091.04 902.202 1090.8 901.782C1090.57 901.362 1090.4 900.88 1090.29 900.336C1090.18 899.788 1090.13 899.208 1090.13 898.596C1090.13 897.984 1090.18 897.404 1090.29 896.856C1090.4 896.304 1090.57 895.816 1090.8 895.392C1091.04 894.968 1091.34 894.634 1091.72 894.39C1092.1 894.146 1092.56 894.024 1093.09 894.024C1093.63 894.024 1094.08 894.146 1094.46 894.39C1094.84 894.634 1095.15 894.968 1095.38 895.392C1095.61 895.816 1095.78 896.304 1095.89 896.856C1096 897.404 1096.06 897.984 1096.06 898.596C1096.06 899.208 1096 899.788 1095.89 900.336C1095.78 900.88 1095.61 901.362 1095.38 901.782C1095.15 902.202 1094.84 902.532 1094.46 902.772C1094.08 903.012 1093.63 903.132 1093.09 903.132ZM1093.09 901.872C1093.4 901.872 1093.65 901.758 1093.85 901.53C1094.05 901.298 1094.2 900.94 1094.3 900.456C1094.41 899.972 1094.46 899.352 1094.46 898.596C1094.46 897.836 1094.41 897.214 1094.3 896.73C1094.2 896.246 1094.05 895.89 1093.85 895.662C1093.65 895.43 1093.4 895.314 1093.09 895.314C1092.79 895.314 1092.54 895.43 1092.34 895.662C1092.13 895.89 1091.98 896.246 1091.87 896.73C1091.77 897.214 1091.72 897.836 1091.72 898.596C1091.72 899.356 1091.77 899.978 1091.87 900.462C1091.98 900.942 1092.13 901.298 1092.34 901.53C1092.54 901.758 1092.79 901.872 1093.09 901.872Z" fill="#9F1010"/>
<path d="M934.576 850.38H931.09L930.772 852.9C930.784 852.856 930.824 852.798 930.892 852.726C930.964 852.654 931.066 852.582 931.198 852.51C931.334 852.434 931.502 852.37 931.702 852.318C931.902 852.266 932.134 852.24 932.398 852.24C933.174 852.24 933.764 852.5 934.168 853.02C934.572 853.54 934.774 854.222 934.774 855.066C934.774 855.73 934.664 856.29 934.444 856.746C934.224 857.202 933.9 857.548 933.472 857.784C933.044 858.016 932.52 858.132 931.9 858.132C931.392 858.132 930.956 858.058 930.592 857.91C930.232 857.758 929.94 857.554 929.716 857.298C929.492 857.038 929.328 856.746 929.224 856.422C929.12 856.094 929.068 855.754 929.068 855.402C929.068 855.398 929.068 855.394 929.068 855.39C929.068 855.386 929.068 855.382 929.068 855.378H930.634C930.634 855.382 930.634 855.386 930.634 855.39C930.634 855.394 930.634 855.398 930.634 855.402C930.646 855.886 930.756 856.252 930.964 856.5C931.176 856.748 931.496 856.872 931.924 856.872C932.196 856.872 932.424 856.808 932.608 856.68C932.796 856.548 932.938 856.352 933.034 856.092C933.134 855.828 933.184 855.496 933.184 855.096C933.184 854.564 933.088 854.154 932.896 853.866C932.708 853.578 932.414 853.434 932.014 853.434C931.77 853.434 931.556 853.482 931.372 853.578C931.188 853.67 931.038 853.784 930.922 853.92C930.806 854.056 930.722 854.188 930.67 854.316L929.164 853.932L929.8 849.15H934.576V850.38Z" fill="#9F1010"/>
<path d="M989.29 849.132V858H987.718V850.662C987.678 850.702 987.572 850.756 987.4 850.824C987.232 850.888 987.028 850.95 986.788 851.01C986.552 851.066 986.306 851.106 986.05 851.13V849.846C986.306 849.814 986.552 849.758 986.788 849.678C987.028 849.598 987.234 849.51 987.406 849.414C987.578 849.314 987.694 849.22 987.754 849.132H989.29ZM994.089 858.132C993.553 858.132 993.095 858.012 992.715 857.772C992.339 857.532 992.033 857.202 991.797 856.782C991.565 856.362 991.395 855.88 991.287 855.336C991.179 854.788 991.125 854.208 991.125 853.596C991.125 852.984 991.179 852.404 991.287 851.856C991.395 851.304 991.565 850.816 991.797 850.392C992.033 849.968 992.339 849.634 992.715 849.39C993.095 849.146 993.553 849.024 994.089 849.024C994.625 849.024 995.081 849.146 995.457 849.39C995.837 849.634 996.143 849.968 996.375 850.392C996.607 850.816 996.777 851.304 996.885 851.856C996.997 852.404 997.053 852.984 997.053 853.596C997.053 854.208 996.997 854.788 996.885 855.336C996.777 855.88 996.607 856.362 996.375 856.782C996.143 857.202 995.837 857.532 995.457 857.772C995.081 858.012 994.625 858.132 994.089 858.132ZM994.089 856.872C994.393 856.872 994.645 856.758 994.845 856.53C995.045 856.298 995.197 855.94 995.301 855.456C995.405 854.972 995.457 854.352 995.457 853.596C995.457 852.836 995.405 852.214 995.301 851.73C995.197 851.246 995.045 850.89 994.845 850.662C994.645 850.43 994.393 850.314 994.089 850.314C993.789 850.314 993.537 850.43 993.333 850.662C993.129 850.89 992.975 851.246 992.871 851.73C992.767 852.214 992.715 852.836 992.715 853.596C992.715 854.356 992.767 854.978 992.871 855.462C992.975 855.942 993.129 856.298 993.333 856.53C993.537 856.758 993.789 856.872 994.089 856.872Z" fill="#9F1010"/>
<path d="M1048.23 849.132V858H1046.66V850.662C1046.62 850.702 1046.51 850.756 1046.34 850.824C1046.17 850.888 1045.97 850.95 1045.73 851.01C1045.49 851.066 1045.25 851.106 1044.99 851.13V849.846C1045.25 849.814 1045.49 849.758 1045.73 849.678C1045.97 849.598 1046.18 849.51 1046.35 849.414C1046.52 849.314 1046.64 849.22 1046.7 849.132H1048.23ZM1055.71 850.38H1052.23L1051.91 852.9C1051.92 852.856 1051.96 852.798 1052.03 852.726C1052.1 852.654 1052.2 852.582 1052.33 852.51C1052.47 852.434 1052.64 852.37 1052.84 852.318C1053.04 852.266 1053.27 852.24 1053.53 852.24C1054.31 852.24 1054.9 852.5 1055.3 853.02C1055.71 853.54 1055.91 854.222 1055.91 855.066C1055.91 855.73 1055.8 856.29 1055.58 856.746C1055.36 857.202 1055.04 857.548 1054.61 857.784C1054.18 858.016 1053.66 858.132 1053.04 858.132C1052.53 858.132 1052.09 858.058 1051.73 857.91C1051.37 857.758 1051.08 857.554 1050.85 857.298C1050.63 857.038 1050.46 856.746 1050.36 856.422C1050.26 856.094 1050.2 855.754 1050.2 855.402C1050.2 855.398 1050.2 855.394 1050.2 855.39C1050.2 855.386 1050.2 855.382 1050.2 855.378H1051.77C1051.77 855.382 1051.77 855.386 1051.77 855.39C1051.77 855.394 1051.77 855.398 1051.77 855.402C1051.78 855.886 1051.89 856.252 1052.1 856.5C1052.31 856.748 1052.63 856.872 1053.06 856.872C1053.33 856.872 1053.56 856.808 1053.74 856.68C1053.93 856.548 1054.07 856.352 1054.17 856.092C1054.27 855.828 1054.32 855.496 1054.32 855.096C1054.32 854.564 1054.22 854.154 1054.03 853.866C1053.84 853.578 1053.55 853.434 1053.15 853.434C1052.91 853.434 1052.69 853.482 1052.51 853.578C1052.32 853.67 1052.17 853.784 1052.06 853.92C1051.94 854.056 1051.86 854.188 1051.81 854.316L1050.3 853.932L1050.94 849.15H1055.71V850.38Z" fill="#9F1010"/>
<path d="M1102.98 858V856.686C1103.01 856.57 1103.11 856.416 1103.28 856.224C1103.45 856.028 1103.66 855.814 1103.91 855.582C1104.15 855.35 1104.41 855.116 1104.68 854.88C1104.95 854.644 1105.2 854.426 1105.43 854.226C1105.71 853.982 1105.98 853.728 1106.25 853.464C1106.52 853.2 1106.74 852.922 1106.92 852.63C1107.09 852.338 1107.18 852.028 1107.18 851.7C1107.18 851.264 1107.08 850.922 1106.87 850.674C1106.66 850.422 1106.34 850.296 1105.92 850.296C1105.57 850.296 1105.29 850.372 1105.09 850.524C1104.88 850.672 1104.74 850.88 1104.65 851.148C1104.56 851.416 1104.52 851.728 1104.52 852.084H1102.93C1102.93 851.464 1103.04 850.926 1103.27 850.47C1103.5 850.01 1103.84 849.654 1104.28 849.402C1104.73 849.15 1105.28 849.024 1105.93 849.024C1106.56 849.024 1107.09 849.142 1107.51 849.378C1107.93 849.61 1108.24 849.93 1108.45 850.338C1108.66 850.742 1108.77 851.2 1108.77 851.712C1108.77 852.06 1108.7 852.388 1108.57 852.696C1108.44 853 1108.27 853.284 1108.06 853.548C1107.86 853.812 1107.63 854.054 1107.4 854.274C1107.16 854.494 1106.94 854.694 1106.72 854.874C1106.37 855.162 1106.05 855.428 1105.78 855.672C1105.51 855.912 1105.28 856.122 1105.11 856.302C1104.94 856.482 1104.84 856.63 1104.8 856.746H1108.75V858H1102.98ZM1113.06 858.132C1112.52 858.132 1112.06 858.012 1111.68 857.772C1111.31 857.532 1111 857.202 1110.76 856.782C1110.53 856.362 1110.36 855.88 1110.25 855.336C1110.15 854.788 1110.09 854.208 1110.09 853.596C1110.09 852.984 1110.15 852.404 1110.25 851.856C1110.36 851.304 1110.53 850.816 1110.76 850.392C1111 849.968 1111.31 849.634 1111.68 849.39C1112.06 849.146 1112.52 849.024 1113.06 849.024C1113.59 849.024 1114.05 849.146 1114.42 849.39C1114.8 849.634 1115.11 849.968 1115.34 850.392C1115.57 850.816 1115.74 851.304 1115.85 851.856C1115.96 852.404 1116.02 852.984 1116.02 853.596C1116.02 854.208 1115.96 854.788 1115.85 855.336C1115.74 855.88 1115.57 856.362 1115.34 856.782C1115.11 857.202 1114.8 857.532 1114.42 857.772C1114.05 858.012 1113.59 858.132 1113.06 858.132ZM1113.06 856.872C1113.36 856.872 1113.61 856.758 1113.81 856.53C1114.01 856.298 1114.16 855.94 1114.27 855.456C1114.37 854.972 1114.42 854.352 1114.42 853.596C1114.42 852.836 1114.37 852.214 1114.27 851.73C1114.16 851.246 1114.01 850.89 1113.81 850.662C1113.61 850.43 1113.36 850.314 1113.06 850.314C1112.76 850.314 1112.5 850.43 1112.3 850.662C1112.1 850.89 1111.94 851.246 1111.84 851.73C1111.73 852.214 1111.68 852.836 1111.68 853.596C1111.68 854.356 1111.73 854.978 1111.84 855.462C1111.94 855.942 1112.1 856.298 1112.3 856.53C1112.5 856.758 1112.76 856.872 1113.06 856.872Z" fill="#9F1010"/>
<path d="M962.243 153H960.155V144.15H963.449L966.155 152.304L965.765 152.388V144.15H967.847V153H964.529L961.823 144.876L962.243 144.792V153Z" fill="#9F1010"/>
</svg>
