<svg width="401" height="666" viewBox="0 0 401 666" fill="none" xmlns="http://www.w3.org/2000/svg">
<path d="M400.246 485.388C393.146 523.357 373.584 558.674 343.814 586.29C310.538 617.158 266.892 636.193 220.473 640.48C208.316 646.16 201.348 657.978 198.772 665.83V665.833C196.273 657.851 189.441 645.769 177.477 640.204C132.099 635.425 89.5319 616.539 56.9231 586.29C27.1536 558.675 7.59247 523.359 0.491455 485.391C0.631434 485.654 0.774088 485.916 0.915283 486.179C14.2468 501.715 42.2473 522.978 75.26 522.031L38.2668 535.802C39.7406 537.25 41.2384 538.682 42.761 540.095C80.7031 575.291 130.916 596.488 184.073 600.101V498.549C193.311 503.396 203.097 506.757 213.395 508.629V600.3C267.759 597.349 319.257 576.012 357.976 540.095C359.593 538.595 361.182 537.073 362.744 535.532L325.693 521.739C358.575 522.682 386.483 501.59 399.877 486.07C399.999 485.843 400.125 485.616 400.246 485.388Z" fill="#EFEFE8"/>
<path d="M323.789 388.404V388.97H323.82V499.926H302.662L301.115 473.776C300.941 474.077 300.732 474.407 300.49 474.765L300.443 473.959C299.526 475.553 297.634 477.946 294.77 481.134C291.905 484.322 287.836 487.619 282.566 491.021C277.41 494.422 270.761 497.345 262.626 499.79C262.417 499.85 262.204 499.909 261.992 499.968C254.127 502.065 244.82 503.115 234.077 503.115L232.31 503.102C214.098 502.812 197.496 498.032 182.51 488.765C167.04 479.198 154.72 465.43 145.553 447.466C138.443 433.533 134.093 417.392 132.497 399.047H161.373C162.228 408.846 163.892 417.713 166.367 425.645C170.149 437.656 175.363 447.596 182.009 455.462C182.685 456.262 183.374 457.042 184.073 457.8C185.597 459.454 187.176 461.01 188.807 462.466C188.851 462.505 188.897 462.546 188.942 462.585C190.523 463.988 192.157 465.299 193.838 466.516C194.581 467.053 195.335 467.574 196.098 468.075C196.803 468.539 197.519 468.988 198.241 469.421C200.485 470.764 202.81 471.959 205.215 473.002C206.555 473.576 207.913 474.107 209.284 474.595C210.63 475.073 211.994 475.51 213.369 475.906C219.937 477.795 226.847 478.742 234.093 478.742C243.12 478.742 251.07 477.785 257.938 475.875C261.376 474.959 264.552 473.809 267.46 472.424L268.284 472.021C276.831 467.8 283.498 462.579 288.281 456.362L288.74 455.757C293.552 449.167 296.646 442.681 298.021 436.304V411.589H285.35V434.467C275.005 408.237 246.039 393.521 227.418 388.403L323.789 388.404Z" fill="#EFEFE8"/>
<path d="M213.395 468.03C212.194 467.62 211.006 467.172 209.834 466.688L209.093 466.377C201.482 463.07 194.679 457.975 188.702 450.902C187.076 448.977 185.531 446.894 184.073 444.651V322.14C189.484 313.897 195.851 307.636 203.082 303.164C206.41 301.129 209.847 299.429 213.395 298.061V468.03Z" fill="#EFEFE8"/>
<path d="M183.279 133.812C184.209 133.812 185.134 133.819 186.049 133.832C186.068 133.832 186.088 133.833 186.107 133.833C187.399 133.852 188.678 133.883 189.94 133.928C190.05 133.932 190.163 133.936 190.273 133.94C190.802 133.96 191.332 133.983 191.856 134.007C191.94 134.011 192.026 134.015 192.11 134.019C192.68 134.046 193.249 134.075 193.813 134.107C193.857 134.11 193.903 134.113 193.947 134.115C195.169 134.187 196.379 134.272 197.571 134.369C197.659 134.376 197.749 134.384 197.837 134.392C198.384 134.437 198.931 134.486 199.472 134.537C199.501 134.54 199.532 134.542 199.561 134.545C200.15 134.601 200.739 134.66 201.321 134.723C201.329 134.724 201.34 134.725 201.349 134.726C202.517 134.851 203.672 134.992 204.81 135.144C204.89 135.154 204.973 135.165 205.053 135.176C205.538 135.241 206.022 135.31 206.501 135.38C206.584 135.392 206.669 135.405 206.752 135.417C207.852 135.581 208.941 135.757 210.011 135.945C210.097 135.961 210.186 135.977 210.272 135.992C210.714 136.071 211.157 136.153 211.594 136.236C211.701 136.257 211.811 136.278 211.918 136.299C212.354 136.383 212.789 136.47 213.22 136.559C213.277 136.57 213.338 136.582 213.395 136.594C218.274 137.607 222.828 138.896 227.048 140.462C239.121 144.779 248.305 151.488 254.593 160.588C261.007 169.688 264.214 181.24 264.214 195.24C264.214 208.54 261.258 219.684 255.348 228.667C249.563 237.533 242.077 244.301 232.897 248.968C229.016 250.918 225.063 252.491 221.044 253.69V228.399C228.315 221.174 231.953 211.638 231.953 199.79C231.953 189.991 229.626 182.23 224.973 176.514C221.516 172.18 216.979 168.748 211.37 166.217C210.771 165.946 210.157 165.685 209.532 165.436C208.138 164.877 206.68 164.368 205.163 163.913C196.737 161.347 186.862 160.064 175.544 160.063H121.964V244.418H168.186C171.019 244.418 173.767 244.342 176.423 244.193V270.645C174.271 270.545 172.09 270.494 169.884 270.494H121.964V364.798H122.878V364.751H170.049V364.798H172.93C174.539 364.798 176.129 364.781 177.698 364.751V391.952L90.8352 391.951V133.812H183.279Z" fill="#EFEFE8"/>
<path d="M236.828 293.832C246.31 293.832 254.046 295.301 260.265 297.964L260.306 297.979C263.262 299.226 265.956 300.643 268.397 302.222C269.632 307.746 270.251 313.855 270.251 320.547C270.251 335.597 266.981 348.491 260.442 359.225C254.028 369.841 244.278 377.951 231.198 383.551C228.016 384.913 224.629 386.109 221.044 387.14V353.815C231.963 345.999 237.425 334.384 237.425 318.972C237.425 309.522 235.6 301.704 231.953 295.521C231.668 295.027 231.371 294.541 231.069 294.063C232.959 293.91 234.88 293.832 236.828 293.832Z" fill="#EFEFE8"/>
<path d="M232.725 262.096C233.861 262.063 235.007 262.045 236.156 262.045C252.197 262.045 265.779 264.65 276.894 269.858C288.123 274.961 297.234 281.606 304.224 289.79C311.328 297.868 316.486 306.48 319.695 315.621C322.903 324.656 324.507 333.162 324.507 341.134V342.864H296.647V340.95C296.647 334.573 295.442 328.195 293.036 321.817C290.745 315.334 287.134 309.485 282.207 304.276C277.28 298.962 271.033 294.709 263.471 291.521C256.256 288.431 247.694 286.838 237.79 286.741L236.828 286.736C229.866 286.736 223.204 287.621 216.849 289.39C215.688 289.7 214.535 290.041 213.395 290.41V290.412C210.429 291.372 207.528 292.531 204.698 293.887C202.48 294.95 200.302 296.137 198.167 297.443C195.242 299.253 192.464 301.305 189.836 303.595C187.829 305.344 185.907 307.236 184.073 309.266C178.998 314.882 174.584 321.571 170.836 329.334C166.797 337.781 163.965 347.539 162.339 358.604H133.334C135.295 344.036 139.14 330.956 144.868 319.365L145.725 317.671C155.007 299.706 167.557 285.939 183.37 276.372C198.08 267.439 214.405 262.633 232.34 261.95C232.467 261.999 232.598 262.047 232.725 262.096Z" fill="#EFEFE8"/>
<path d="M184.073 167.436C191.153 167.915 197.374 169.008 202.779 170.654L202.793 170.66L202.81 170.665C207.002 171.923 210.501 173.594 213.395 175.64V257.132H213.024C202.845 259.232 193.184 262.731 184.073 267.635V167.436Z" fill="#EFEFE8"/>
<path fill-rule="evenodd" clip-rule="evenodd" d="M200.008 0.5C219.371 0.500034 235.067 15.061 235.068 33.0225C235.068 44.7951 228.324 55.1061 218.225 60.8145H289.25L267.577 80.9189H213.395V129.336C204.461 127.613 194.668 126.759 184.073 126.719V80.9189H133.076L111.404 60.8145H181.792C171.693 55.1061 164.949 44.7952 164.949 33.0225C164.95 15.0611 180.646 0.500183 200.008 0.5ZM200.008 21.7871C193.319 21.7873 187.897 26.8178 187.897 33.0225C187.897 39.2272 193.319 44.2576 200.008 44.2578C206.697 44.2578 212.119 39.2273 212.119 33.0225C212.119 26.8177 206.697 21.7871 200.008 21.7871Z" fill="#EFEFE8"/>
<path d="M400.246 485.388C393.146 523.357 373.584 558.674 343.814 586.29C310.538 617.158 266.892 636.193 220.473 640.48C208.316 646.16 201.348 657.978 198.772 665.83V665.833C196.273 657.851 189.441 645.769 177.477 640.204C132.099 635.425 89.5319 616.539 56.9231 586.29C27.1536 558.675 7.59247 523.359 0.491455 485.391C0.631434 485.654 0.774088 485.916 0.915283 486.179C14.2468 501.715 42.2473 522.978 75.26 522.031L38.2668 535.802C39.7406 537.25 41.2384 538.682 42.761 540.095C80.7031 575.291 130.916 596.488 184.073 600.101V498.549C193.311 503.396 203.097 506.757 213.395 508.629V600.3C267.759 597.349 319.257 576.012 357.976 540.095C359.593 538.595 361.182 537.073 362.744 535.532L325.693 521.739C358.575 522.682 386.483 501.59 399.877 486.07C399.999 485.843 400.125 485.616 400.246 485.388Z" stroke="black"/>
<path d="M323.789 388.404V388.97H323.82V499.926H302.662L301.115 473.776C300.941 474.077 300.732 474.407 300.49 474.765L300.443 473.959C299.526 475.553 297.634 477.946 294.77 481.134C291.905 484.322 287.836 487.619 282.566 491.021C277.41 494.422 270.761 497.345 262.626 499.79C262.417 499.85 262.204 499.909 261.992 499.968C254.127 502.065 244.82 503.115 234.077 503.115L232.31 503.102C214.098 502.812 197.496 498.032 182.51 488.765C167.04 479.198 154.72 465.43 145.553 447.466C138.443 433.533 134.093 417.392 132.497 399.047H161.373C162.228 408.846 163.892 417.713 166.367 425.645C170.149 437.656 175.363 447.596 182.009 455.462C182.685 456.262 183.374 457.042 184.073 457.8C185.597 459.454 187.176 461.01 188.807 462.466C188.851 462.505 188.897 462.546 188.942 462.585C190.523 463.988 192.157 465.299 193.838 466.516C194.581 467.053 195.335 467.574 196.098 468.075C196.803 468.539 197.519 468.988 198.241 469.421C200.485 470.764 202.81 471.959 205.215 473.002C206.555 473.576 207.913 474.107 209.284 474.595C210.63 475.073 211.994 475.51 213.369 475.906C219.937 477.795 226.847 478.742 234.093 478.742C243.12 478.742 251.07 477.785 257.938 475.875C261.376 474.959 264.552 473.809 267.46 472.424L268.284 472.021C276.831 467.8 283.498 462.579 288.281 456.362L288.74 455.757C293.552 449.167 296.646 442.681 298.021 436.304V411.589H285.35V434.467C275.005 408.237 246.039 393.521 227.418 388.403L323.789 388.404Z" stroke="black"/>
<path d="M213.395 468.03C212.194 467.62 211.006 467.172 209.834 466.688L209.093 466.377C201.482 463.07 194.679 457.975 188.702 450.902C187.076 448.977 185.531 446.894 184.073 444.651V322.14C189.484 313.897 195.851 307.636 203.082 303.164C206.41 301.129 209.847 299.429 213.395 298.061V468.03Z" stroke="black"/>
<path d="M183.279 133.812C184.209 133.812 185.134 133.819 186.049 133.832C186.068 133.832 186.088 133.833 186.107 133.833C187.399 133.852 188.678 133.883 189.94 133.928C190.05 133.932 190.163 133.936 190.273 133.94C190.802 133.96 191.332 133.983 191.856 134.007C191.94 134.011 192.026 134.015 192.11 134.019C192.68 134.046 193.249 134.075 193.813 134.107C193.857 134.11 193.903 134.113 193.947 134.115C195.169 134.187 196.379 134.272 197.571 134.369C197.659 134.376 197.749 134.384 197.837 134.392C198.384 134.437 198.931 134.486 199.472 134.537C199.501 134.54 199.532 134.542 199.561 134.545C200.15 134.601 200.739 134.66 201.321 134.723C201.329 134.724 201.34 134.725 201.349 134.726C202.517 134.851 203.672 134.992 204.81 135.144C204.89 135.154 204.973 135.165 205.053 135.176C205.538 135.241 206.022 135.31 206.501 135.38C206.584 135.392 206.669 135.405 206.752 135.417C207.852 135.581 208.941 135.757 210.011 135.945C210.097 135.961 210.186 135.977 210.272 135.992C210.714 136.071 211.157 136.153 211.594 136.236C211.701 136.257 211.811 136.278 211.918 136.299C212.354 136.383 212.789 136.47 213.22 136.559C213.277 136.57 213.338 136.582 213.395 136.594C218.274 137.607 222.828 138.896 227.048 140.462C239.121 144.779 248.305 151.488 254.593 160.588C261.007 169.688 264.214 181.24 264.214 195.24C264.214 208.54 261.258 219.684 255.348 228.667C249.563 237.533 242.077 244.301 232.897 248.968C229.016 250.918 225.063 252.491 221.044 253.69V228.399C228.315 221.174 231.953 211.638 231.953 199.79C231.953 189.991 229.626 182.23 224.973 176.514C221.516 172.18 216.979 168.748 211.37 166.217C210.771 165.946 210.157 165.685 209.532 165.436C208.138 164.877 206.68 164.368 205.163 163.913C196.737 161.347 186.862 160.064 175.544 160.063H121.964V244.418H168.186C171.019 244.418 173.767 244.342 176.423 244.193V270.645C174.271 270.545 172.09 270.494 169.884 270.494H121.964V364.798H122.878V364.751H170.049V364.798H172.93C174.539 364.798 176.129 364.781 177.698 364.751V391.952L90.8352 391.951V133.812H183.279Z" stroke="black"/>
<path d="M236.828 293.832C246.31 293.832 254.046 295.301 260.265 297.964L260.306 297.979C263.262 299.226 265.956 300.643 268.397 302.222C269.632 307.746 270.251 313.855 270.251 320.547C270.251 335.597 266.981 348.491 260.442 359.225C254.028 369.841 244.278 377.951 231.198 383.551C228.016 384.913 224.629 386.109 221.044 387.14V353.815C231.963 345.999 237.425 334.384 237.425 318.972C237.425 309.522 235.6 301.704 231.953 295.521C231.668 295.027 231.371 294.541 231.069 294.063C232.959 293.91 234.88 293.832 236.828 293.832Z" stroke="black"/>
<path d="M232.725 262.096C233.861 262.063 235.007 262.045 236.156 262.045C252.197 262.045 265.779 264.65 276.894 269.858C288.123 274.961 297.234 281.606 304.224 289.79C311.328 297.868 316.486 306.48 319.695 315.621C322.903 324.656 324.507 333.162 324.507 341.134V342.864H296.647V340.95C296.647 334.573 295.442 328.195 293.036 321.817C290.745 315.334 287.134 309.485 282.207 304.276C277.28 298.962 271.033 294.709 263.471 291.521C256.256 288.431 247.694 286.838 237.79 286.741L236.828 286.736C229.866 286.736 223.204 287.621 216.849 289.39C215.688 289.7 214.535 290.041 213.395 290.41V290.412C210.429 291.372 207.528 292.531 204.698 293.887C202.48 294.95 200.302 296.137 198.167 297.443C195.242 299.253 192.464 301.305 189.836 303.595C187.829 305.344 185.907 307.236 184.073 309.266C178.998 314.882 174.584 321.571 170.836 329.334C166.797 337.781 163.965 347.539 162.339 358.604H133.334C135.295 344.036 139.14 330.956 144.868 319.365L145.725 317.671C155.007 299.706 167.557 285.939 183.37 276.372C198.08 267.439 214.405 262.633 232.34 261.95C232.467 261.999 232.598 262.047 232.725 262.096Z" stroke="black"/>
<path d="M184.073 167.436C191.153 167.915 197.374 169.008 202.779 170.654L202.793 170.66L202.81 170.665C207.002 171.923 210.501 173.594 213.395 175.64V257.132H213.024C202.845 259.232 193.184 262.731 184.073 267.635V167.436Z" stroke="black"/>
<path fill-rule="evenodd" clip-rule="evenodd" d="M200.008 0.5C219.371 0.500034 235.067 15.061 235.068 33.0225C235.068 44.7951 228.324 55.1061 218.225 60.8145H289.25L267.577 80.9189H213.395V129.336C204.461 127.613 194.668 126.759 184.073 126.719V80.9189H133.076L111.404 60.8145H181.792C171.693 55.1061 164.949 44.7952 164.949 33.0225C164.95 15.0611 180.646 0.500183 200.008 0.5ZM200.008 21.7871C193.319 21.7873 187.897 26.8178 187.897 33.0225C187.897 39.2272 193.319 44.2576 200.008 44.2578C206.697 44.2578 212.119 39.2273 212.119 33.0225C212.119 26.8177 206.697 21.7871 200.008 21.7871Z" stroke="black"/>
</svg>
